<?xml version="1.0" encoding="utf-8"?>
<!-- Generator: Adobe Illustrator 19.0.0, SVG Export Plug-In . SVG Version: 6.00 Build 0)  -->
<!DOCTYPE svg PUBLIC "-//W3C//DTD SVG 1.1//EN" "http://www.w3.org/Graphics/SVG/1.1/DTD/svg11.dtd">
<svg version="1.1" id="Layer_1" xmlns="http://www.w3.org/2000/svg" xmlns:xlink="http://www.w3.org/1999/xlink" x="0px" y="0px"
	 viewBox="212 -212 1024 1024" style="enable-background:new 212 -212 1024 1024;" xml:space="preserve">
<style type="text/css">
	.st0{fill:url(#SVGID_1_);}
	.st1{fill:#FFFFFF;}
	.st2{fill:#020202;}
	.st3{fill:#FD358A;}
	.st4{fill:#A9E700;}
	.st5{fill:#FCEE21;}
</style>
<path d="M310.6,581.1c0,73.1,59.2,132.3,132.3,132.3h562.2c73.1,0,132.3-59.2,132.3-132.3V18.9c0-73.1-59.2-132.3-132.3-132.3H442.9
	c-73.1,0-132.3,59.2-132.3,132.3V581.1"/>
<linearGradient id="SVGID_1_" gradientUnits="userSpaceOnUse" x1="615.565" y1="-337.701" x2="751.2151" y2="460.0511">
	<stop  offset="0" style="stop-color:#FFF200"/>
	<stop  offset="1" style="stop-color:#CA5A74"/>
</linearGradient>
<path class="st0" d="M326.1,18.9c0-64.5,52.3-116.8,116.8-116.8h562.2c64.5,0,116.8,52.3,116.8,116.8v562.2
	c0,64.5-52.3,116.8-116.8,116.8H442.9c-64.5,0-116.8-52.3-116.8-116.8V18.9 M617.2-76.5c-7.3,0-13.3,5.9-13.3,13.3
	c0,7.3,5.9,13.3,13.3,13.3c7.3,0,13.3-5.9,13.3-13.3C630.4-70.6,624.5-76.5,617.2-76.5 M702.6-76.5c-7.3,0-13.3,5.9-13.3,13.3
	c0,7.3,5.9,13.3,13.3,13.3c7.3,0,13.3-5.9,13.3-13.3C715.9-70.6,709.9-76.5,702.6-76.5 M788.1-76.5c-7.3,0-13.3,5.9-13.3,13.3
	c0,7.3,5.9,13.3,13.3,13.3c7.3,0,13.3-5.9,13.3-13.3C801.4-70.6,795.4-76.5,788.1-76.5 M403.5-33.8c-7.3,0-13.3,5.9-13.3,13.3
	c0,7.3,5.9,13.3,13.3,13.3c7.3,0,13.3-5.9,13.3-13.3C416.7-27.9,410.8-33.8,403.5-33.8 M574.4-33.8c-7.3,0-13.3,5.9-13.3,13.3
	c0,7.3,5.9,13.3,13.3,13.3c7.3,0,13.3-5.9,13.3-13.3C587.7-27.9,581.7-33.8,574.4-33.8 M617.2-33.8c-7.3,0-13.3,5.9-13.3,13.3
	c0,7.3,5.9,13.3,13.3,13.3c7.3,0,13.3-5.9,13.3-13.3C630.4-27.9,624.5-33.8,617.2-33.8 M702.6-33.8c-7.3,0-13.3,5.9-13.3,13.3
	c0,7.3,5.9,13.3,13.3,13.3c7.3,0,13.3-5.9,13.3-13.3C715.9-27.9,710-33.8,702.6-33.8 M745.4-33.8c-7.3,0-13.3,5.9-13.3,13.3
	c0,7.3,5.9,13.3,13.3,13.3c7.3,0,13.3-5.9,13.3-13.3C758.6-27.9,752.7-33.8,745.4-33.8 M788.1-33.8c-7.3,0-13.3,5.9-13.3,13.3
	c0,7.3,5.9,13.3,13.3,13.3c7.3,0,13.3-5.9,13.3-13.3C801.4-27.9,795.4-33.8,788.1-33.8 M873.6-33.8c-7.3,0-13.3,5.9-13.3,13.3
	c0,7.3,5.9,13.3,13.3,13.3c7.3,0,13.3-5.9,13.3-13.3C886.8-27.9,880.9-33.8,873.6-33.8 M916.3-33.8c-7.3,0-13.3,5.9-13.3,13.3
	c0,7.3,5.9,13.3,13.3,13.3c7.3,0,13.3-5.9,13.3-13.3C929.6-27.9,923.6-33.8,916.3-33.8 M1001.8-33.8c-7.3,0-13.3,5.9-13.3,13.3
	c0,7.3,5.9,13.3,13.3,13.3c7.3,0,13.3-5.9,13.3-13.3C1015.1-27.9,1009.1-33.8,1001.8-33.8 M1044.5-33.8c-7.3,0-13.3,5.9-13.3,13.3
	c0,7.3,5.9,13.3,13.3,13.3c7.3,0,13.3-5.9,13.3-13.3C1057.8-27.9,1051.9-33.8,1044.5-33.8 M403.5,8.9c-7.3,0-13.3,5.9-13.3,13.3
	c0,7.3,5.9,13.3,13.3,13.3c7.3,0,13.3-5.9,13.3-13.3C416.7,14.9,410.8,8.9,403.5,8.9 M959.1,8.9c-7.3,0-13.3,5.9-13.3,13.3
	c0,7.3,5.9,13.3,13.3,13.3c7.3,0,13.3-5.9,13.3-13.3C972.3,14.9,966.4,8.9,959.1,8.9 M1001.8,8.9c-7.3,0-13.3,5.9-13.3,13.3
	c0,7.3,5.9,13.3,13.3,13.3c7.3,0,13.3-5.9,13.3-13.3C1015.1,14.9,1009.1,8.9,1001.8,8.9 M403.5,51.7c-7.3,0-13.3,5.9-13.3,13.3
	c0,7.3,5.9,13.3,13.3,13.3c7.3,0,13.3-5.9,13.3-13.3C416.7,57.6,410.8,51.7,403.5,51.7 M916.3,51.7c-7.3,0-13.3,5.9-13.3,13.3
	c0,7.3,5.9,13.3,13.3,13.3c7.3,0,13.3-5.9,13.3-13.3C929.6,57.6,923.6,51.7,916.3,51.7 M1001.8,51.7c-7.3,0-13.3,5.9-13.3,13.3
	c0,7.3,5.9,13.3,13.3,13.3c7.3,0,13.3-5.9,13.3-13.3C1015.1,57.6,1009.1,51.7,1001.8,51.7 M403.5,94.4c-7.3,0-13.3,6-13.3,13.3
	c0,7.3,5.9,13.2,13.3,13.3c7.3,0,13.3-6,13.3-13.3C416.7,100.3,410.8,94.4,403.5,94.4 M446.2,94.4c-7.3,0-13.3,6-13.3,13.3
	c0,7.3,5.9,13.2,13.3,13.3c7.3,0,13.3-6,13.3-13.3C459.4,100.3,453.5,94.4,446.2,94.4 M959.1,94.4c-7.3,0-13.3,6-13.3,13.3
	c0,7.3,5.9,13.2,13.3,13.3c7.3,0,13.3-6,13.3-13.3C972.3,100.3,966.4,94.4,959.1,94.4 M1044.5,94.4c-7.3,0-13.3,6-13.3,13.3
	c0,7.3,5.9,13.2,13.3,13.3c7.3,0,13.3-6,13.3-13.3C1057.8,100.3,1051.9,94.4,1044.5,94.4 M1087.3,94.4c-7.3,0-13.3,6-13.3,13.3
	c0,7.3,5.9,13.2,13.3,13.3c7.3,0,13.3-6,13.3-13.3C1100.5,100.3,1094.6,94.4,1087.3,94.4 M403.5,137.1c-7.3,0-13.3,5.9-13.3,13.3
	c0,7.3,5.9,13.3,13.3,13.3c7.3,0,13.3-5.9,13.3-13.3C416.7,143.1,410.8,137.1,403.5,137.1L403.5,137.1 M446.2,137.1
	c-7.3,0-13.3,5.9-13.3,13.3c0,7.3,5.9,13.3,13.3,13.3s13.3-5.9,13.3-13.3C459.5,143.1,453.5,137.1,446.2,137.1 M916.3,137.1
	c-7.3,0-13.3,5.9-13.3,13.3c0,7.3,5.9,13.3,13.3,13.3c7.3,0,13.3-5.9,13.3-13.3C929.6,143.1,923.7,137.1,916.3,137.1 M1087.3,137.1
	c-7.3,0-13.3,5.9-13.3,13.3c0,7.3,5.9,13.3,13.3,13.3c7.3,0,13.3-5.9,13.3-13.3C1100.5,143.1,1094.6,137.1,1087.3,137.1
	 M360.7,179.9c-7.3,0-13.3,5.9-13.3,13.3c0,7.3,5.9,13.3,13.3,13.3s13.3-5.9,13.3-13.3C374,185.8,368.1,179.9,360.7,179.9
	 M446.2,179.9c-7.3,0-13.3,5.9-13.3,13.3c0,7.3,5.9,13.3,13.3,13.3s13.3-5.9,13.3-13.3C459.5,185.8,453.5,179.9,446.2,179.9
	 M916.3,179.9c-7.3,0-13.3,5.9-13.3,13.3c0,7.3,5.9,13.3,13.3,13.3c7.3,0,13.3-5.9,13.3-13.3C929.6,185.8,923.7,179.9,916.3,179.9
	 M959.1,179.9c-7.3,0-13.3,5.9-13.3,13.3c0,7.3,5.9,13.3,13.3,13.3c7.3,0,13.3-5.9,13.3-13.3C972.3,185.8,966.4,179.9,959.1,179.9
	L959.1,179.9 M1087.3,179.9c-7.3,0-13.3,5.9-13.3,13.3c0,7.3,5.9,13.3,13.3,13.3c7.3,0,13.3-5.9,13.3-13.3
	C1100.5,185.8,1094.6,179.9,1087.3,179.9 M360.7,222.6c-7.3,0-13.3,6-13.3,13.3c0,7.3,5.9,13.2,13.3,13.3c7.3,0,13.3-6,13.3-13.3
	C374,228.6,368,222.6,360.7,222.6 M1087.3,222.6c-7.3,0-13.3,6-13.3,13.3c0,7.3,5.9,13.2,13.3,13.3c7.3,0,13.3-6,13.3-13.3
	C1100.5,228.6,1094.6,222.6,1087.3,222.6 M1001.8,265.4c-7.3,0-13.3,6-13.3,13.3c0,7.3,5.9,13.2,13.3,13.3c7.3,0,13.3-6,13.3-13.3
	C1015,271.3,1009.1,265.4,1001.8,265.4 M1044.5,265.4c-7.3,0-13.3,6-13.3,13.3c0,7.3,5.9,13.2,13.3,13.3c7.3,0,13.3-6,13.3-13.3
	C1057.8,271.3,1051.9,265.4,1044.5,265.4 M1087.3,265.4c-7.3,0-13.3,6-13.3,13.3c0,7.3,5.9,13.2,13.3,13.3c7.3,0,13.3-6,13.3-13.3
	C1100.5,271.3,1094.6,265.4,1087.3,265.4 M1044.5,308.1c-7.3,0-13.3,5.9-13.3,13.3c0,7.3,5.9,13.3,13.3,13.3l0,0
	c7.3,0,13.3-5.9,13.3-13.3C1057.8,314,1051.9,308.1,1044.5,308.1 M488.9,350.8c-7.3,0-13.3,5.9-13.3,13.3c0,7.3,5.9,13.3,13.3,13.3
	l0,0c7.3,0,13.3-5.9,13.3-13.3C502.2,356.8,496.3,350.8,488.9,350.8 M1001.8,350.8c-7.3,0-13.3,5.9-13.3,13.3
	c0,7.3,5.9,13.3,13.3,13.3c7.3,0,13.3-5.9,13.3-13.3C1015.1,356.8,1009.1,350.8,1001.8,350.8 M1044.5,350.8
	c-7.3,0-13.3,5.9-13.3,13.3c0,7.3,5.9,13.3,13.3,13.3l0,0c7.3,0,13.3-5.9,13.3-13.3C1057.8,356.8,1051.9,350.8,1044.5,350.8
	 M403.5,393.6c-7.3,0-13.3,6-13.3,13.3c0,7.3,5.9,13.2,13.3,13.3c7.3,0,13.3-6,13.3-13.3C416.7,399.5,410.8,393.6,403.5,393.6
	 M1087.3,393.6c-7.3,0-13.3,6-13.3,13.3c0,7.3,5.9,13.2,13.3,13.3c7.3,0,13.3-6,13.3-13.3C1100.5,399.5,1094.6,393.6,1087.3,393.6
	 M403.5,436.3c-7.3,0-13.3,6-13.3,13.3c0,7.3,5.9,13.2,13.3,13.3c7.3,0,13.3-6,13.3-13.3C416.7,442.3,410.8,436.3,403.5,436.3
	 M403.5,479.1c-7.3,0-13.3,6-13.3,13.3c0,7.3,5.9,13.2,13.3,13.3c7.3,0,13.3-6,13.3-13.3C416.7,485,410.8,479.1,403.5,479.1
	 M1044.5,479.1c-7.3,0-13.3,6-13.3,13.3c0,7.3,5.9,13.2,13.3,13.3c7.3,0,13.3-6,13.3-13.3C1057.8,485,1051.9,479.1,1044.5,479.1
	 M403.5,521.8c-7.3,0-13.3,6-13.3,13.3c0,7.3,5.9,13.2,13.3,13.3c7.3,0,13.3-6,13.3-13.3C416.7,527.7,410.8,521.8,403.5,521.8
	 M446.2,521.8c-7.3,0-13.3,6-13.3,13.3c0,7.3,5.9,13.2,13.3,13.3c7.3,0,13.3-6,13.3-13.3C459.4,527.7,453.5,521.8,446.2,521.8
	 M959.1,521.8c-7.3,0-13.3,6-13.3,13.3c0,7.3,5.9,13.2,13.3,13.3c7.3,0,13.3-6,13.3-13.3C972.3,527.7,966.4,521.8,959.1,521.8
	 M1087.3,521.8c-7.3,0-13.3,6-13.3,13.3c0,7.3,5.9,13.2,13.3,13.3c7.3,0,13.3-6,13.3-13.3C1100.5,527.7,1094.6,521.8,1087.3,521.8
	 M403.5,564.5c-7.3,0-13.3,6-13.3,13.3c0,7.3,5.9,13.2,13.3,13.3c7.3,0,13.3-6,13.3-13.3C416.7,570.5,410.8,564.5,403.5,564.5
	 M446.2,564.5c-7.3,0-13.3,6-13.3,13.3c0,7.3,5.9,13.2,13.3,13.3c7.3,0,13.3-6,13.3-13.3C459.4,570.5,453.5,564.5,446.2,564.5
	 M574.4,564.5c-7.3,0-13.3,6-13.3,13.3c0,7.3,5.9,13.2,13.3,13.3c7.3,0,13.3-6,13.3-13.3C587.7,570.5,581.7,564.5,574.4,564.5
	 M617.2,564.5c-7.3,0-13.3,6-13.3,13.3c0,7.3,5.9,13.2,13.3,13.3c7.3,0,13.3-6,13.3-13.3C630.4,570.5,624.5,564.5,617.2,564.5
	 M830.8,564.5c-7.3,0-13.3,6-13.3,13.3c0,7.3,5.9,13.2,13.3,13.3c7.3,0,13.3-6,13.3-13.3C844.1,570.5,838.2,564.5,830.8,564.5
	 M959.1,564.5c-7.3,0-13.3,6-13.3,13.3c0,7.3,5.9,13.2,13.3,13.3c7.3,0,13.3-6,13.3-13.3C972.3,570.5,966.4,564.5,959.1,564.5
	 M1001.8,564.5c-7.3,0-13.3,6-13.3,13.3c0,7.3,5.9,13.2,13.3,13.3c7.3,0,13.3-6,13.3-13.3C1015,570.5,1009.1,564.5,1001.8,564.5
	 M403.5,607.3c-7.3,0-13.3,6-13.3,13.3c0,7.3,5.9,13.2,13.3,13.3c7.3,0,13.3-6,13.3-13.3C416.7,613.2,410.8,607.3,403.5,607.3
	 M574.4,607.3c-7.3,0-13.3,6-13.3,13.3c0,7.3,5.9,13.2,13.3,13.3c7.3,0,13.3-6,13.3-13.3C587.7,613.2,581.7,607.3,574.4,607.3
	 M617.2,607.3c-7.3,0-13.3,6-13.3,13.3c0,7.3,5.9,13.2,13.3,13.3c7.3,0,13.3-6,13.3-13.3C630.4,613.2,624.5,607.3,617.2,607.3
	 M659.9,607.3c-7.3,0-13.3,6-13.3,13.3c0,7.3,5.9,13.2,13.3,13.3c7.3,0,13.3-6,13.3-13.3C673.1,613.2,667.2,607.3,659.9,607.3
	 M702.6,607.3c-7.3,0-13.3,6-13.3,13.3c0,7.3,5.9,13.2,13.3,13.3c7.3,0,13.3-6,13.3-13.3C715.9,613.2,709.9,607.3,702.6,607.3
	 M788.1,607.3c-7.3,0-13.3,6-13.3,13.3c0,7.3,5.9,13.2,13.3,13.3c7.3,0,13.3-6,13.3-13.3C801.4,613.2,795.4,607.3,788.1,607.3
	 M873.6,607.3c-7.3,0-13.3,6-13.3,13.3c0,7.3,5.9,13.2,13.3,13.3c7.3,0,13.3-6,13.3-13.3C886.8,613.2,880.9,607.3,873.6,607.3
	 M916.3,607.3c-7.3,0-13.3,6-13.3,13.3c0,7.3,5.9,13.2,13.3,13.3c7.3,0,13.3-6,13.3-13.3C929.6,613.2,923.6,607.3,916.3,607.3
	 M488.9,650c-7.3,0-13.3,5.9-13.3,13.3c0,7.3,5.9,13.3,13.3,13.3l0,0c7.3,0,13.3-5.9,13.3-13.3C502.2,655.9,496.3,650,488.9,650
	 M531.7,650c-7.3,0-13.3,5.9-13.3,13.3c0,7.3,5.9,13.3,13.3,13.3s13.3-5.9,13.3-13.3C544.9,655.9,539,650,531.7,650 M574.4,650
	c-7.3,0-13.3,5.9-13.3,13.3c0,7.3,5.9,13.3,13.3,13.3s13.3-5.9,13.3-13.3C587.7,655.9,581.7,650,574.4,650 M788.1,650
	c-7.3,0-13.3,5.9-13.3,13.3c0,7.3,5.9,13.3,13.3,13.3c7.3,0,13.3-5.9,13.3-13.3C801.4,655.9,795.4,650,788.1,650 M916.3,650
	c-7.3,0-13.3,5.9-13.3,13.3c0,7.3,5.9,13.3,13.3,13.3c7.3,0,13.3-5.9,13.3-13.3C929.6,655.9,923.7,650,916.3,650 M959.1,650
	c-7.3,0-13.3,5.9-13.3,13.3c0,7.3,5.9,13.3,13.3,13.3l0,0c7.3,0,13.3-5.9,13.3-13.3C972.3,655.9,966.4,650,959.1,650"/>
<g>
	<g>
		<path d="M732.6,95.4c-13.7-1-27-1-40.6,2.2c-21.6,5.2-41.7,17.5-57.1,36c-9.5,11.4-18,25.3-22.4,40.2c-4.9,16.7-6.2,34.6-7,51.9
			c-0.5,9.2-0.7,18.3-0.9,27.5c0,2.2-0.1,4.4-0.1,6.6c0,1.5,0.5,7.2-0.4,8.1c-1.8,2-6.9,1.4-9,1.2c-3.7-0.4-15.1,0.7-18.5-1
			c-3.8-1.8-21.9-4.9-26-5.7c-6.4-1.2-13.8,1.3-18.7,6.3c-8.3,8.6-4.3,19.7,3.1,26.5c5.9,5.5,35.4,6.4,42.4,9.7
			c5.8,2.7,12.2,5.8,16.4,11.3c6.1,8,1.6,17.7-2.5,25.7c-3.2,6.2-6.9,12.1-10.8,17.8c-13.4,19.3-30.6,35.8-50.9,44.8
			c-6.1,2.7-12.4,4.7-18.9,5.9c-3.2,0.6-6.9,0.4-9.8,2.3c-3.1,2.1-4.6,6-4.2,10c1,10.1,11,16,18.1,19.7c6.3,3.3,12.9,5.7,19.5,7.9
			c4.1,1.3,8.1,2.5,12.2,3.6c2,0.5,2.9,0.4,3.5,2.7c0.4,1.8,0.7,3.6,0.9,5.5c0.6,4.5,1,9,1.7,13.5c0.5,2.9,1.2,5.7,3.2,7.8
			c5.1,5.4,14.1,2.2,20.4,1.4c16.6-2.1,34.4-0.6,48.4,10.2c12.2,9.4,22.3,21.6,35.2,29.9c13.6,8.8,29.2,12.3,45,11.8
			c14.8-0.4,28.5-6.3,41.4-14.5c14-9,27.2-20.7,43.7-22c9-0.7,18,0.1,26.7,2.1c6.1,1.4,12.3,4.4,18.6,4.2
			c8.5-0.2,10.2-10.6,12.3-18.1c0.8-3,1.4-7.6,3.3-10.1c1.1-1.5,3.7-1.1,5.4-1.3c2.3-0.3,4.6-0.6,6.9-0.9
			c12.1-1.7,25.5-3.9,36.3-10.9c3.1-2,6.2-4.7,7.9-8.4c1.7-3.4,2-7.6,0.2-10.9c-1.9-3.5-5.1-4.2-8.3-5.2
			c-12.2-3.8-23.6-10.6-33.4-19.5c-15.1-13.7-26.8-32-35.1-51.9c-1.7-4.1-3.2-8.3-4.6-12.6c-2.1-6.6-3.9-14.4,0.7-20.5
			c4.2-5.6,32.6-3.3,38.9-3"/>
		<path d="M731.8,105.1c15.1,1.1,30.1,6.1,43.4,14.2c21.9,13.4,38.9,36.8,46.1,64.1c4.1,15.6,2.9,33.2,1.6,49.3
			c-0.8,9.3-1.9,18.6-3,27.8c-0.6,4.7-1.2,9.3-1.8,13.9c-0.3,2.5-0.7,5.1-1,7.6c-0.2,1.6-0.9,3.8-0.7,5.5c0.4,3.6,5.2,6.4,7.9,7.6
			c7,3.2,14.1,5.4,21.7,5.7l7.9-9.7c-7.6,0.2-19.2-1.8-26.5-5.2c-0.5-0.2-1.3-0.5-1.6-0.9c-0.5-0.8-0.1-1.9,0-3
			c0.3-2.5,0.6-4.9,1-7.4c0.5-3.8,1-7.6,1.5-11.5c2.3-18.1,4.5-36.3,4.4-54.5c0-8.1-0.5-16.3-2.1-24.1c-1.5-7.7-4.3-15.1-7.4-22.1
			c-5.7-13.1-13.3-25-22.8-34.9c-14.2-14.8-32.1-24.6-51-29.4c-5.5-1.4-11.1-2.4-16.8-2.8"/>
		<path class="st1" d="M897.9,450.7c-3.3-1-6.6-2.2-9.9-3.5c-22-9.4-40-27.6-53.2-49.4c-7-11.7-12.9-24.3-17.1-37.7
			c-2.5-7.9-4-16.4-0.8-24.5c2.8-6.9,8.4-11.5,14.3-14.6c6-3.1,37.7,2.9,44.3,3.3l-62.5-95.3l9.8,3.6c1.4-16.1,2.5-33.7-1.6-49.3
			c-7.2-27.3-24.2-50.7-46.1-64.1c-13.2-8.1-28.3-13-43.4-14.2c-5.9-0.5-11.9-0.9-17.8-0.7c-18.7,0.6-37.4,6.4-53.5,17.8
			c-10.9,7.8-20.4,18-28,29.9c-4.1,6.4-8,13.3-10.6,20.7c-2.6,7.5-4.1,15.4-5.2,23.2c-2.6,18.3-3.1,37-3.5,55.5
			c-0.1,4.8-0.2,9.7-0.3,14.5c0,1.8,0.3,4.3-0.2,6.1c-0.2,1-0.5,1.3-1.3,2c-3.1,3.1-7.4,4.5-11.4,4.9c-8.1,0.8-26.8,0.1-33.8-3.9
			c-2-1.1-15.5-2.7-17.7-3c-1.8-0.3-3.8,0.1-5.5,0.7c-2.6,0.9-6.6,3-7.2,6.4c-0.8,4.6,4.5,8.7,7.2,10.7c5.9,4.5,35,4.7,41.5,7.9
			c12.2,6.2,23.9,16.9,20.2,34c-1.5,6.8-5.1,13.3-8.4,19.3c-9.7,17.4-22.2,33.2-36.8,45.5c-9.9,8.4-21,15.1-32.7,19.5
			c-6.4,2.4-13,4-19.7,4.9c-1.4,0.2-1.9-0.1-1.6,1.6c0,0.2,0.2,0.4,0.3,0.6c0.3,0.6,0.6,1.1,1,1.6c3.9,5.4,10.5,8.4,16.1,10.9
			c6.4,2.9,13.1,5.1,19.8,7.1c3.6,1.1,8.2,1.4,11.4,3.5c2.5,1.6,3.7,4.8,4.5,7.9c1,3.9,1.3,8,1.8,12.1c0.3,2.6,0.6,5.3,1.1,7.9
			c0.3,1.8,0.3,2.3,1.9,2.5c3.4,0.4,7.1-0.7,10.5-1.1c3.5-0.5,7-0.8,10.4-1c9-0.4,18,0.6,26.7,2.9c8.2,2.1,15.5,6.7,22.2,12.4
			c11.8,9.9,22.2,22,35.6,29.4c7,3.9,14.6,6.3,22.4,7.2c7.3,0.8,14.8,1.2,22.1-0.1c14.6-2.5,27.3-11,39.9-19.6
			c7.2-4.9,14.4-9.9,22.4-13c8.3-3.2,17.2-3.7,25.9-3.2c7.9,0.4,15.7,1.9,23.4,4.1c3.2,0.9,6.6,2.2,9.9,2.4c2,0.1,1.9-1,2.6-3
			c0.7-2.3,1.4-4.7,2-7c1.7-6,3.3-15.9,9.3-18.3c3.6-1.5,8.2-1.1,12-1.7c3.8-0.5,7.7-1.1,11.5-1.9c8-1.6,17-3.5,24.1-8.5
			c1.2-0.9,2.6-1.9,3.4-3.3c0.1-0.2,0.3-0.4,0.3-0.6C900.3,450.8,899.4,451.1,897.9,450.7z"/>
	</g>
	<g>
		<path class="st2" d="M645.9,202.3c19.1,0.6,37.2,5.6,54.8,12.6c1.8,0.7,3.7,1.3,5.5,2.1c8.4,3.5,17,4,25.9,2
			c9.2-2.1,18.5-4.1,27.9-5.2c11.2-1.4,22.3-1.3,33.5-0.2c16.5,1.7,32.9,4.3,49.1,8.4c2.1,0.5,2.6,1.2,2.1,3.3
			c-0.8,3.5-1.3,7-1.9,10.5c-0.1,0.8-0.4,1.3-1.2,1.5c-3.6,1-5.6,3.7-7.1,7c-2.1,4.8-2.9,10-3.9,15.1c-1,5-2.4,9.8-4.5,14.5
			c-5.7,12.6-15.4,20.1-29,21.9c-14,1.8-27.5-0.1-40.3-6.2c-12.6-6-20.3-16.2-24.7-29.2c-2-6.1-3.5-12.3-5.3-18.4
			c-1.8-6.1-2.5-8.5-11.7-8.3c-2.7,0.1-4.6,1.5-5.8,3.8c-2,3.7-3.6,7.6-5.3,11.5c-1.7,3.7-3.3,7.4-5.3,11
			c-8.6,15.3-21.7,23.6-39,25.5c-9.3,1-18.6,0.6-27.7-1.8c-16-4.3-25.1-14.9-28.2-31c-1.3-6.4-1.1-13-1.7-19.5
			c-0.2-2.6-0.6-5.2-1.5-7.7c-1-3-2.6-5.5-5.5-6.8c-0.8-0.4-1-0.9-1-1.7c0-3.8-0.1-7.6-0.3-11.5c-0.1-1.6,0.6-2,2-2.1
			c11.3-1.1,22.6-1.6,33.9-1.4C635.2,201.9,640.6,202.1,645.9,202.3z M783.2,290.9c15.6,1.3,27.6-4.5,35.3-18.2
			c4.7-8.3,6.5-17.5,6.8-27c0.3-8.9-4.1-15.4-11.9-19.6c-2.9-1.5-5.9-2.7-9-3.5c-12.5-3.2-25.3-3.7-38.1-2.7
			c-6.1,0.5-12.1,1.7-17.6,4.6c-6.5,3.5-9.9,8.8-10.2,16.2c-0.2,4.6,0.8,9,1.5,13.5c2.3,15,10,26.1,24.2,32.2
			C770.2,289.1,776.6,290.4,783.2,290.9z M652.1,209.9c-3.1-0.2-6.2-0.6-9.3-0.7c-6.3,0-12.6,0.5-18.6,2.8
			c-7.4,2.8-12.1,7.9-13.7,15.8c-1.4,7.1-1,14.2,0.2,21.2c2.4,13.6,9.3,24,22.7,29c8,3,16.3,3,24.6,2c14.9-1.8,26.2-9,32.7-22.9
			c2.6-5.5,4.3-11.3,5.6-17.2c2-9-1-15.9-8.7-20.9c-2.1-1.4-4.3-2.5-6.7-3.4C671.8,211.9,662,210.6,652.1,209.9z M604.3,213
			c2,0.1,4.2,0.1,6.3-0.7c0.4-0.2,0.9-0.4,0.9-0.9c0-0.4-0.4-0.6-0.8-0.8c-3.5-1-7-1.1-10.5,0.1c-0.4,0.1-0.8,0.3-0.7,0.8
			c0,0.4,0.4,0.6,0.8,0.8C601.6,212.8,602.8,212.9,604.3,213z M831.5,226.9c-1.2,0-2.4,0.1-3.5,0.1c-0.5,0-1.2,0.1-1.3,0.7
			c-0.1,0.6,0.4,0.9,0.9,1.1c3.1,1.4,6.3,1.9,9.6,1.5c0.5-0.1,1.2-0.1,1.3-0.7c0.1-0.7-0.6-1-1.1-1.2
			C835.6,227.6,833.6,227.2,831.5,226.9z"/>
		<path class="st3" d="M783.2,290.9c-6.6-0.6-12.9-1.8-19-4.4c-14.3-6-21.9-17.1-24.2-32.2c-0.7-4.5-1.7-8.9-1.5-13.5
			c0.3-7.4,3.7-12.7,10.2-16.2c5.5-2.9,11.5-4.1,17.6-4.6c12.8-1,25.5-0.5,38.1,2.7c3.1,0.8,6.1,2,9,3.5
			c7.8,4.2,12.2,10.7,11.9,19.6c-0.3,9.4-2,18.6-6.8,27C810.7,286.5,798.7,292.2,783.2,290.9z"/>
		<path class="st3" d="M652.1,209.9c9.9,0.7,19.7,2,28.9,5.7c2.3,0.9,4.6,2.1,6.7,3.4c7.7,5,10.7,12,8.7,20.9
			c-1.3,5.9-3.1,11.7-5.6,17.2c-6.5,13.9-17.8,21.1-32.7,22.9c-8.3,1-16.6,1-24.6-2c-13.4-5-20.4-15.4-22.7-29
			c-1.2-7-1.7-14.1-0.2-21.2c1.6-7.9,6.4-13,13.7-15.8c6-2.3,12.3-2.9,18.6-2.8C646,209.3,649,209.7,652.1,209.9z"/>
		<path class="st4" d="M604.3,213c-1.5-0.1-2.8-0.2-3.9-0.7c-0.4-0.2-0.8-0.3-0.8-0.8c0-0.5,0.4-0.7,0.7-0.8c3.5-1.1,7-1.1,10.5-0.1
			c0.4,0.1,0.8,0.3,0.8,0.8c0,0.6-0.5,0.8-0.9,0.9C608.5,213.1,606.3,213.1,604.3,213z"/>
		<path class="st4" d="M831.5,226.9c2.1,0.3,4,0.7,5.9,1.6c0.5,0.2,1.2,0.5,1.1,1.2c-0.1,0.6-0.8,0.6-1.3,0.7
			c-3.3,0.4-6.6-0.1-9.6-1.5c-0.5-0.2-1.1-0.5-0.9-1.1c0.1-0.6,0.8-0.7,1.3-0.7C829.1,227,830.3,227,831.5,226.9z"/>
	</g>
	<g>
		<path d="M892.1,431.5c3.6,1.8,6.6,3.9,9.1,6.5l-0.3,1.9c-0.4,0.3-0.6,0.6-0.6,0.9c-0.4,0.3-0.7,0.5-1.1,0.8
			c-1.9-0.3-3.4-1.1-4.4-2.5c-3.6-1.7-7.4-2.6-11.6-2.5c-1.1,0.8-1.5,2-1.4,3.6c0.2,0.7,0.3,1.3,0.2,1.9c0.7,2,1.5,4,2.5,6.1
			c0.9,2.7,2,5.2,3.3,7.6c0,7-0.8,13.9-2.3,20.6l-0.5,3.7c-1.1,3.7-3.4,6.2-6.7,7.7l-1.9-0.3c-1.6,0.4-3.1,0.4-4.3-0.1
			c-0.5-0.7-1.3-1.3-2.1-1.7c-2.6-7-3.5-14.1-2.9-21.3c-5.5-13.1-14.6-22.6-27.1-28.4l-4.2-0.6c-4-1.2-8.2-1.9-12.6-2.2
			c0.9,17.3-0.3,34.2-3.5,50.9c-4.2,12.1-6.8,24.3-7.8,36.6c1.2,3,2.5,6.1,4,9.1c3.3,11.2,1.5,22.1-5.3,32.6
			c-0.9,6.9-3.5,12.2-7.9,16.1c-0.9-0.8-1.5-1.6-2-2.7c-0.3-5.1,0.1-10.1,1.1-15.1c0.5-1.5,0.7-3.1,0.6-4.7c-0.7,0.2-1.3,0.5-2,0.7
			c-2.8,4.1-5.2,8.3-7.4,12.8l-0.2,1.4c-1,2.4-2.3,4.4-4.2,6.1c-2.1,1.3-4.3,2.3-6.6,2.9c-3.6,0.5-7.3,0.3-11.3-0.6l-4.2-0.6
			c-4.3,1-8.2,0.5-11.7-1.6c-0.3-0.4-0.5-0.9-0.7-1.5c2.1-8.9,7.8-14.4,16.9-16.3c9.3-5.1,15.8-12.8,19.8-23.1
			c6.6-21,8.9-43.1,7-66.2c-1.6-14.5-2-28.8-1.4-43c-4.7-0.3-9.2-1.1-13.5-2.3c-10.4-2.7-21.4-4.1-32.8-4.2
			c-11.4-0.1-20.8-4.8-28.1-14c-1.7-10.7,0.9-20,7.8-28c6.9-8,13.6-15.5,19.9-22.6c8.3-12.2,15.4-25.1,21.4-38.6l-0.5-0.1
			c-3.2,0.5-6.9,0.2-10.8-1c-3.6,3-7.5,5-11.8,6c-0.3-0.3-0.7-0.7-1.3-1.1c-0.1-4.1,1.7-6.9,5.4-8.3l0.1-0.5l-0.9-0.1
			c-1,0.5-2.3,0.6-3.9,0.4c0,0.3-0.2,0.6-0.6,0.9c-1.6,0.4-3.4,0.5-5.3,0.2c-1,0.5-2,1-3.1,1.5c-2.6,0.3-4.9-0.3-6.9-1.9
			c-0.2-0.7-0.3-1.2-0.3-1.5c1.1-1.1,2.4-2.2,3.8-3.3c3.6-3,7.6-4.5,12-4.6c1.6,0.2,3,0.2,4.3,0.1c6.8-1,12.7-3.7,17.7-8.1
			c1.8-2,3.6-4.3,5.2-6.9c0.1-0.9,0.4-1.8,0.8-2.7c3.9-7.7,7.3-15.5,10.3-23.4c1.6-11.8,3-23.7,4.3-35.6c-3.4-1.1-5.3-3.2-5.8-6.5
			l0.6-4.2c0.3-1.9,1.1-3.5,2.6-4.9l0.6-4.2l1.1-8.4c-0.4-1.6-0.7-3.3-0.8-4.9c-0.3,0-0.5,0.1-0.5,0.4c-0.7,2.8-1.1,5.6-1.1,8.4
			c-1.7,3.3-4.3,5.8-7.7,7.5c-0.4,2.8-0.6,5.6-0.7,8.5c-0.8,0.9-1.6,1.1-2.5,0.6c-1.8-0.9-3.2-2.3-4.2-4.4c-0.3-2.9,0.6-5.3,2.4-7.3
			c0.4-0.6,1.1-1,2.1-1.2c0.8-1.2,1.4-2.5,2-4c1.9-2.6,3.6-5.2,4.9-7.9c0.1-2.8-0.5-5.6-1.7-8.3c2.2-14,9.3-25.3,21.2-33.8
			c3.8-16.3,11.7-29.5,23.9-39.6c1-0.5,2-0.8,3-1c2.9-0.6,5.9-0.3,8.9,0.7c0.9,0.8,1.7,1.5,2.6,2.2c4.7-2.2,9.3-1.9,13.7,0.9
			c6,2.4,9.9,6.9,11.5,13.4c1,2,1.7,4,2.1,6c-0.4,2.8-0.6,5.6-0.7,8.5c3,1,5.6,3,7.8,5.8c1.2,0.8,2,1.5,2.6,2.2c0.5,1,1,1.9,1.6,2.6
			c0.6,0.4,1.2,0.8,1.7,1.2c0.5,1,0.8,2,1,3c0.3,0.4,0.6,0.6,0.9,0.6c-0.1,0.9-0.1,1.7,0.2,2.4c7.6,16.9,14,34.4,19.1,52.6
			c2.6,9.2,1.7,17.8-2.5,25.8c-1.5,1.4-3.2,2.3-5.1,2.6l-4.7-0.6c-1.6,0.1-3.2-0.1-4.7-0.6c-1.1-1.1-2.4-2.4-3.8-3.8l-0.9-0.1
			c-1.5-0.5-2.8-1.3-4-2.4c-0.2-1-0.7-1.7-1.6-2.1c-3.1-3-6.4-5.6-9.9-8c-1.4-1.8-2.9-3.4-4.6-4.9l-0.9,7c0.2,3.5-0.1,6.8-0.8,9.9
			l-2.3,16.8l-1,7.5c0.1,6.7,0.3,13.2,0.7,19.6c0.3,7.3,0.9,14.9,1.7,22.6c-0.3,2.2-0.5,4.5-0.5,7.1l-2,15c-0.8,5.9-1.5,12-2,18.3
			c-0.5,1.2-0.8,2.6-1,4.1c-1,3-2.1,6.4-3.3,10c-2.3,0.3-4.6,0.8-6.9,1.5c-2.5,2.2-4.7,4.6-6.7,7.2c-2.2-0.3-4,0.3-5.5,1.6
			c-1.1,3.3-1.9,6.7-2.3,10.2c-0.4,2.8-0.9,5.6-1.6,8.4c-0.8,3.7-1.3,7.3-1.4,10.8c1.4,5.9,1.1,11.6-0.9,17c3.1,0.7,6.1,1.8,9.1,3.1
			c1.9,0.3,3.7,0.7,5.5,1.2c5.7,2.7,11.6,4.6,17.8,5.7c0.1-0.6,0.3-1.2,0.7-1.8c0.7-0.2,1.5-0.4,2.5-0.6c1.7-1,3.4-2.1,5.2-3.1
			l4.7,0.6C878.1,420.9,885.7,424.6,892.1,431.5z M744.6,309.8l0.1-0.5l-0.9-0.1c-0.4,0.6-0.9,0.8-1.5,0.7l-0.1,0.5l0.9,0.1
			C743.5,310,744,309.7,744.6,309.8z M745.7,309c0,0.3,0.1,0.5,0.4,0.5C746.1,309.2,746,309,745.7,309z M794.7,401.7l0.2-1.4
			c-0.3-2.6-0.3-5,0-7.1c-0.2-3.2-0.3-6.4-0.1-9.5l0.6-4.7c-0.5-3.6-0.8-6.9-1-10.1l-1.4-0.2c-2.7,0.9-5.5,2.1-8.6,3.6
			c-0.4,0.6-0.8,1-1.1,1.3c-5.2,3.1-10.3,6.1-15.5,8.9c-3.4,1.5-6.2,3.5-8.4,6l3.3,0.4c4.3,0.9,8.6,1.8,13,2.7
			C781.8,394.6,788.2,398,794.7,401.7z M791.4,184.7c1-2.4,1.9-4.8,2.9-7.2l-0.5-0.1c-2,0.7-3.9,1.7-5.6,3.1c0.5,1,0.7,2.2,0.5,3.4
			c0.8,1.4,1.4,2.9,1.8,4.5l0.5,0.1L791.4,184.7z M855.9,165.2c-0.5,1.2-0.5,2.5,0,3.8C856.7,167.9,856.7,166.6,855.9,165.2z
			 M857.5,175c-0.4,0.6-0.7,1.3-0.8,2.3l0.5,0.1C857.6,176.4,857.7,175.6,857.5,175z M865.2,163.2c-1.4,5.5-2.8,11.1-4.1,16.6
			c3.6,3.7,5.9,7.9,6.8,12.8c2,4.1,4.2,8,6.5,11.8c0.2,0.7,0.3,1.3,0.2,1.9c0.6,0.1,1,0.5,1.3,1.1c1.1,1.4,2.2,2.8,3.2,4.2
			c-1.4-6.2-2-12.6-1.7-19.3c-0.1-1.3-0.1-2.6,0-3.8c-1.2-4.9-2.7-9.7-4.3-14.4C872.7,168.8,870,165.1,865.2,163.2z"/>
	</g>
	<path d="M854.5,304.9c-1.1,6.9-27.3,18.2-33,20.8c-6.9,3.3-14,5.9-20.3,10.7c-4.6,3.5-9.3,8.3-10.3,14.9
		c-2.6,17.2,19.1,24.5,29.9,18.5c6.6-3.7,53.6-14.1,54.9-31.2c0,0,5.3-18.4-1.1-29s-14.2-20-27.9-20.7"/>
	<path class="st1" d="M867,312.3c12.2,40.4-36.9,42-43.7,45.2c-4.1,1.9-7.7,5-12.2,4.8c-3.3-0.2-7.3-1.6-9.8-4.2
		c-2.6-2.7-2.3-5.6-0.3-8.5c3.7-5.5,10.2-8.8,15.8-11.2c6-2.7,36.8-12.2,40.7-17.7"/>
</g>
<g>
	<path class="st1" d="M561.3,281.8c-0.7-1.1-1.5-2.2-2.2-3.3c-0.5-0.8-1.1-1.1-2-1.1c-6.9-0.5-12.9-2.8-17.5-8.1
		c-4.4-5-5.9-11-5.2-17.4c0.4-4.4,1-8.8,0.9-13.3c-0.3-10,0.4-9.7-2.9-16.8"/>
	<g>
		<path d="M528.6,189.3c1.5,2.6,2.9,5,4.4,7.7c-4.7,1-9.3,1.9-14.2,2.9c1,1.4,1.8,2.6,2.5,3.8c6.3,9.9,9.2,20.8,9.6,32.5
			c0.2,5.3-0.5,10.4-1,15.7c-0.7,7.6,1.1,14.6,6.1,20.5c5.3,6.2,12.3,9,20.3,9.6c1.1,0.1,1.8,0.4,2.3,1.3c0.8,1.3,1.7,2.6,2.6,3.9
			c1.2,1.8,2.4,3.3,5,2.3c2.4,11.8,4.8,23.5,7.2,35.3c-3,0.8-6,1.6-8.9,2.5c-2.9,0.9-5.8,1.6-8.2,3.6c0,0.2,0,0.3,0,0.5
			c0.8,0.2,1.6,0.5,2.4,0.5c3.6-0.2,7.3-0.5,10.9-0.8c0.5,0,1-0.1,1.5-0.1c4.6-0.9,9.1-1.9,13.7-2.8c2.4-0.8,4.9-1.5,7.3-2.3
			c1.7-0.6,3.3-1.3,4.9-2c0.4-0.2,0.7-0.8,1-1.2c-0.5-0.2-1-0.7-1.5-0.7c-3.5,0.1-6.9,0.3-10.4,0.6c-1.8,0.1-3.5,0.5-5.3,0.8
			c-0.8,0.1-1.2-0.1-1.4-1c-2.2-11-4.5-22-6.7-33c-0.2-0.9,0-1.3,1-1.5c1.5-0.2,2.4-1.2,2.7-2.7c0.4-1.9,0.8-3.7,1.1-5.6
			c0.2-1.3,0.8-2,2-2.6c4.3-2.2,8-5.3,10.8-9.3c4.5-6.4,5.6-13.4,3.9-21c-0.8-3.7-2.5-7-4.4-10.2c-5.6-9.5-9-19.7-9.9-30.7
			c-0.4-5.7-0.1-11.3,1.1-16.9c0.1-0.4,0.1-0.9,0.2-1.4c0-0.1-0.1-0.2-0.1-0.4c-0.5,0.1-1,0.2-1.6,0.3c-13.7,2.8-27.4,5.6-41.1,8.4
			c-1.2,0.2-1.8,0-2.4-1c-1.3-2.5-2.8-5-4.3-7.5c7.7-4.4,15.2-8.8,23.2-13.4c-2.2-0.4-4-0.8-5.8-1.2c-7.3-1.4-14.6-2.8-21.9-4.2
			c-3-0.6-6-1.2-8.9-1.8c-0.1,0-0.2,0-0.3,0.1c-4.1,11.7-8.1,23.4-12.2,35.1c0.1,0.1,0.2,0.2,0.3,0.3
			C513.6,197.9,521.1,193.6,528.6,189.3z M519.1,175.5c0.6,4.5,1.2,9,1.7,13.6c0,0.3-0.2,0.9-0.5,1c-2.6,1.6-5.3,3.1-7.9,4.6
			c-0.1-0.1-0.2-0.1-0.3-0.2c2.2-6.3,4.4-12.7,6.6-19C518.8,175.4,519,175.4,519.1,175.5z M535.7,180.1c-3.4-2.5-6.8-5.1-10.2-7.6
			c-0.2-0.2-0.4-0.4-0.9-0.9c6.9,1.3,13.6,2.6,20.4,3.9c-0.3,0.3-0.4,0.5-0.5,0.6c-2.5,1.4-5,2.9-7.5,4.3
			C536.7,180.5,536.1,180.4,535.7,180.1z M527.2,207c-0.7-1.6-1.6-3-2.5-4.7c3.3-0.7,6.5-1.4,9.6-1.9c0.3-0.1,0.9,0.5,1.2,0.9
			c2.5,4.3,30.6,52.4,33.1,56.7l6.3,3.6c-2.6-4.6-30.8-52.8-33.4-57.4c-0.9-1.5-1.7-3.1-2.7-4.7c12.8-2.6,25.4-5.2,38.2-7.8
			c-1,6.6-2.1,12-1.1,18.6c0,0,1.2,7,2.2,10.3c1,3.3,3.2,10.3,7.8,18.1c1.6,2.8,3.1,5.6,3.8,8.7c1.5,6.4,0.4,12.4-3.4,17.8
			c-2.4,3.4-5.6,6-9.3,7.9c-1,0.5-1.6,1.1-1.7,2.2c-0.2,1.6-0.6,3.2-0.9,4.8c-0.7,3.2-10.5,5.4-13.1,1.7c-0.7-1.1-1.5-2.2-2.2-3.3
			c-0.5-0.8-1.1-1.1-2-1.1c-6.9-0.5-12.9-2.8-17.5-8.1c-4.4-5-5.9-11-5.2-17.4c0.4-4.4,1-8.8,0.9-13.3c-0.1-5.4,0-11.9-1.6-17
			C532.6,215.7,527.2,207,527.2,207z M524.1,187.9c-0.6-4.5-1.1-8.7-1.6-13c0.1,0,0.3-0.1,0.4-0.1c3.4,2.5,6.8,5.1,10.4,7.8
			C530.1,184.4,527.2,186.1,524.1,187.9z"/>
	</g>
	<path class="st5" d="M558.6,215.8c4.8-2.7,10.4-4.8,17-4c0.5,0.1,0.2,0,1,0.1c0.7,9.4,4.7,18.7,9.4,26.8c1.6,2.8,3.1,5.6,3.8,8.7
		c1.5,6.4,0.4,12.4-3.4,17.8c-2.4,3.4-5.6,6-9.3,7.9c-1,0.5-1.6,1.1-1.7,2.2c-0.2,1.6-0.6,3.2-0.9,4.8c-0.7,3.2-10.5,5.4-13.1,1.7
		c-0.7-1.1-1.5-2.2-2.2-3.3c-0.5-0.8-1.1-1.1-2-1.1c-6.9-0.5-12.9-2.8-17.5-8.1c-4.4-5-5.9-11-5.2-17.4c0.4-4.4,1-8.8,0.9-13.3
		c-0.2-5.8,0.1-12.5-1.8-17.9c0.3,0.9-0.7,1.3,0.2,1.6c3.8,1.3,6.3,1.8,10.8,1C549.2,222.6,552.5,219.2,558.6,215.8z"/>
</g>
<path class="st3" d="M519.1,175.5c0.6,4.5,1.2,9,1.7,13.6c0,0.3-0.2,0.9-0.5,1c-2.6,1.6-5.3,3.1-7.9,4.6c-0.1-0.1-0.2-0.1-0.3-0.2
	c2.2-6.3,4.4-12.7,6.6-19C518.8,175.4,519,175.4,519.1,175.5z"/>
<path class="st3" d="M524.1,187.9c-0.6-4.5-1.1-8.7-1.6-13c0.1,0,0.3-0.1,0.4-0.1c3.4,2.5,6.8,5.1,10.4,7.8
	C530.1,184.4,527.2,186.1,524.1,187.9z"/>
<path class="st3" d="M535.7,180.1c-3.4-2.5-6.8-5.1-10.2-7.6c-0.2-0.2-0.4-0.4-0.9-0.9c6.9,1.3,13.6,2.6,20.4,3.9
	c-0.3,0.3-0.4,0.5-0.5,0.6c-2.5,1.4-5,2.9-7.5,4.3C536.7,180.5,536.1,180.4,535.7,180.1z"/>
</svg>
