<?xml version="1.0" encoding="utf-8"?>
<!-- Generator: Adobe Illustrator 20.1.0, SVG Export Plug-In . SVG Version: 6.00 Build 0)  -->
<svg version="1.1" id="Layer_1" xmlns="http://www.w3.org/2000/svg" xmlns:xlink="http://www.w3.org/1999/xlink" x="0px" y="0px"
	 viewBox="0 0 1024 1024" style="enable-background:new 0 0 1024 1024;" xml:space="preserve">
<style type="text/css">
	.st0{fill:url(#SVGID_1_);}
	.st1{fill:url(#SVGID_2_);}
	.st2{fill:#020202;}
	.st3{fill:#FD358A;}
	.st4{fill:#A9E700;}
	.st5{fill:#FFFFFF;}
	.st6{fill:#FCEE21;}
</style>
<path d="M519.1,180.8c27,0,54.4,5.9,79.1,16.9c40.8,18.3,74.2,52.9,90.7,94.6c9.5,23.9,9.7,51.4,9.5,76.7
	c-0.1,14.6-0.8,29.2-1.7,43.8c-0.4,7.3-0.9,14.6-1.3,22c-0.2,4-0.5,8-0.7,12.1c-0.2,2.6-1,6.1-0.5,8.6c1.2,5.6,10.2,9.4,15.1,10.9
	c13,4.1,26.5,1.1,39-3.3c7.4-2.6,14.1-7.1,22.3-6.3c5.9,0.5,12.8,3.2,17,7.5c4.4,4.5,3.5,8.9-0.3,13.2c-7.2,8.2-19.1,12.9-29.2,16.2
	c-11,3.6-22.2,6.9-32.5,12.4c-10.1,5.5-19.5,13.3-23.5,24.4c-4.7,12.9-0.8,26.1,4.7,38.1c9.3,20.3,21.4,39.4,35.5,56.8
	c26.4,32.5,60.9,58.8,101.3,70.8c5.9,1.8,12,3.2,18,4.4c2.6,0.5,4.2-0.1,3.3,2.6c-0.1,0.3-0.4,0.7-0.5,1c-1.3,2.3-3.6,4.1-5.7,5.6
	c-11.9,8.7-27.6,12.7-41.7,16.2c-6.7,1.6-13.4,3-20.1,4.3c-6.7,1.3-14.9,1.3-21.1,4c-10.5,4.5-12,20.1-14.1,29.7
	c-0.8,3.8-1.7,7.5-2.7,11.2c-0.9,3.3-0.6,5-4.1,5c-6,0.1-12.1-1.5-18-2.6c-13.9-2.6-28-3.9-42.1-3.6c-15.4,0.4-31.2,2.2-45.6,8.1
	c-13.7,5.7-26,14.3-38.1,22.9c-21.1,14.9-42.6,29.7-68.3,35.4c-12.9,2.8-26.2,3.2-39.3,2.7c-14-0.5-27.8-3.4-40.8-8.6
	c-24.8-9.9-44.9-27.5-67.3-41.6c-12.7-8-26.2-14.3-41.1-16.7c-15.8-2.5-31.9-3-47.9-1.3c-6.2,0.7-12.3,1.6-18.5,2.8
	c-6,1.1-12.5,3.2-18.6,3c-2.9-0.1-2.9-1-3.7-3.7c-1.1-4-2.1-8.1-3-12.2c-1.4-6.2-2.5-12.7-4.8-18.7c-1.8-4.7-4.4-9.5-9.1-11.8
	c-6-2.9-14.3-2.8-20.8-4.1c-12.2-2.3-24.3-5-36.2-8.7c-10.2-3.2-22.4-7.1-30.1-15c-0.7-0.8-1.5-1.5-2-2.5c-0.2-0.3-0.4-0.6-0.5-0.9
	c-0.8-2.5,0.2-2.2,2.6-2.7c11.8-2.2,23.3-5.5,34.4-10c20.3-8.1,39-20,55.6-34.3c24.3-21,44.4-47,59.4-75.3
	c5.1-9.7,10.6-20.3,12.4-31.1c4.4-27.1-18-42.5-40.5-50.7c-12-4.4-24.3-7.3-35.4-13.7c-5.1-2.9-15-8.7-14.2-15.9
	c0.6-5.5,7.4-9.2,11.9-10.9c3.1-1.1,6.4-1.9,9.7-1.7c4,0.2,7.4,2.3,11,3.8c13.1,5.4,27.9,9.2,42.1,7c7.1-1.1,14.5-3.8,19.7-9.1
	c1.2-1.3,1.7-1.8,2-3.3c0.5-2.8-0.4-6.6-0.5-9.5c-0.5-7.6-0.9-15.2-1.4-22.7c-1.8-28.9-3.5-58-1.4-87c0.9-12.4,2.5-24.9,6.2-36.9
	c3.6-11.9,9.6-23.1,16.1-33.6c11.9-19.4,27.4-36.5,45.8-49.9c27-19.6,59.6-30.9,92.8-34.1C498,180.8,508.5,180.8,519.1,180.8
	 M0,860.2C0,950.7,73.4,1024,163.8,1024h696.3c90.5,0,163.8-73.4,163.8-163.8V163.8C1024,73.3,950.5,0,860.2,0H163.8
	C73.4,0,0,73.4,0,163.8V860.2"/>
<linearGradient id="SVGID_1_" gradientUnits="userSpaceOnUse" x1="19.25" y1="514.05" x2="1004.7499" y2="514.05" gradientTransform="matrix(1 0 0 -1 0 1026)">
	<stop  offset="0" style="stop-color:#CA5A74"/>
	<stop  offset="1" style="stop-color:#CA5A74"/>
</linearGradient>
<path class="st0" d="M19.2,163.8C19.2,84,84,19.2,163.8,19.2h696.3c79.9,0,144.6,64.8,144.6,144.6v696.3
	c0,79.9-64.8,144.6-144.6,144.6H163.8c-79.9,0-144.6-64.8-144.6-144.6L19.2,163.8 M519.1,165.5c-24.5,0.1-48.2,1.6-71.9,8.3
	c-37.8,10.7-71.9,32.3-96.6,62.9c-15.4,19-28.7,41.6-34.4,65.4c-6.4,26.6-6.3,54.7-5.5,81.9c0.4,14.4,1.3,28.7,2.2,43.1
	c0.2,3.5,0.4,6.9,0.7,10.4c0.1,2.3,1.8,11.2,0.5,12.8c-2.9,3.3-12.1,3.1-15.9,2.9c-6.7-0.2-13.4-1.9-19.7-4
	c-6.9-2.4-13.5-6.5-20.9-7.3c-11.6-1.1-24.4,3.7-32.4,12.1c-13.6,14.4-5,31.3,9,41.1c11.3,7.9,24.3,12,37.2,16.2
	c10.7,3.5,22.5,7.6,30.7,15.7c11.9,11.8,5.2,27.4-1,40.4c-4.9,10.1-10.6,19.8-16.9,29.1c-21.3,31.7-49.7,59.5-84.5,75.9
	c-10.5,4.9-21.5,8.8-32.8,11.4c-5.5,1.3-12.3,1.4-17,4.7c-5.2,3.7-7.3,10-6.1,16.1c3.1,15.6,21.8,23.7,35,28.6
	c11.6,4.3,23.7,7.4,35.9,10c7.4,1.6,14.8,2.9,22.3,4.1c3.6,0.6,5.3,0.3,6.6,3.9c1,2.7,1.7,5.6,2.4,8.4c1.7,7,3,14,4.9,20.8
	c1.2,4.5,2.9,8.8,6.7,11.8c9.9,7.8,25.5,1.8,36.4-0.2c29.3-5.2,61.1-5,87.5,10.1c22.9,13.2,42.7,31,66.6,42.4
	c25.5,12.2,53.6,15.7,81.6,13.1c26.2-2.4,49.9-13.2,71.7-27.5c23.8-15.7,45.6-35.6,74.8-39.5c15.9-2.2,32-2,47.9,0.2
	c11,1.5,22.4,5.4,33.6,4.4c15.2-1.3,16.8-17.8,19.4-29.8c1.1-4.8,1.5-12,4.4-16.1c1.7-2.4,6.5-2.2,9.4-2.7c4.1-0.7,8.1-1.4,12.2-2.2
	c21.3-4.2,44.8-9,63.1-21.4c5.3-3.6,10.3-8.1,13-14.1c2.5-5.6,2.5-12.1-1.2-17.1c-3.9-5.3-9.6-5.9-15.5-7.1
	c-22.3-4.5-43.3-13.7-62.1-26.5c-28.7-19.6-52-46.8-69.4-76.8c-3.6-6.2-6.9-12.6-9.9-19.2c-4.6-10.1-8.8-22.1-1.6-32.1
	c6.7-9.2,18.7-13.8,29-17.5c12.7-4.5,25.5-7.9,37.2-14.9c8.5-5,17.5-12.2,19.9-22.3c6.4-26.6-31.6-40-51.3-31.6
	c-12.2,5.2-27,12-40.5,7.5c-0.9-0.3-2.4-0.6-3-1.2c-1.1-1.1-0.5-2.9-0.4-4.6c0.2-3.9,0.5-7.8,0.7-11.7c0.4-6,0.8-12,1.1-18.1
	c1.7-28.5,3-57.2,0.5-85.6c-1.2-12.6-3.1-25.3-7-37.4c-3.8-11.8-9.7-23.1-16.1-33.7c-11.9-19.8-27.1-37.5-45.2-51.7
	c-27.3-21.5-60.4-34.7-94.7-39.8C539.5,166.4,529.2,165.5,519.1,165.5 M379.8,45.7c-9.1,0-16.4,7.4-16.4,16.4
	c0,9.1,7.4,16.4,16.4,16.4c9.1,0,16.4-7.4,16.4-16.4C396.1,53,388.8,45.7,379.8,45.7 M485.5,45.7c-9.1,0-16.4,7.4-16.4,16.4
	c0,9.1,7.4,16.4,16.4,16.4c9.1,0,16.4-7.4,16.4-16.4C502,53,494.6,45.7,485.5,45.7 M591.5,45.7c-9.1,0-16.4,7.4-16.4,16.4
	c0,9.1,7.4,16.4,16.4,16.4c9.1,0,16.4-7.4,16.4-16.4C607.8,53,600.5,45.7,591.5,45.7 M115,98.6c-9.1,0-16.4,7.4-16.4,16.4
	c0,9.1,7.4,16.4,16.4,16.4c9.1,0,16.4-7.4,16.4-16.4C131.4,105.9,124.1,98.6,115,98.6 M326.8,98.6c-9.1,0-16.4,7.4-16.4,16.4
	c0,9.1,7.4,16.4,16.4,16.4c9.1,0,16.4-7.4,16.4-16.4C343.2,105.9,335.8,98.6,326.8,98.6 M379.8,98.6c-9.1,0-16.4,7.4-16.4,16.4
	c0,9.1,7.4,16.4,16.4,16.4c9.1,0,16.4-7.4,16.4-16.4C396.1,105.9,388.8,98.6,379.8,98.6 M485.5,98.6c-9.1,0-16.4,7.4-16.4,16.4
	c0,9.1,7.4,16.4,16.4,16.4c9.1,0,16.4-7.4,16.4-16.4C502,105.9,494.6,98.6,485.5,98.6 M538.5,98.6c-9.1,0-16.5,7.3-16.5,16.4
	s7.4,16.4,16.4,16.4c9.1,0,16.4-7.4,16.4-16.4C555,105.9,547.5,98.6,538.5,98.6 M591.5,98.6c-9.1,0-16.4,7.3-16.4,16.4
	s7.4,16.4,16.4,16.4c9.1,0,16.4-7.4,16.4-16.4C607.8,105.9,600.5,98.6,591.5,98.6 M697.3,98.6c-9.1,0-16.4,7.4-16.4,16.4
	c0,9.1,7.4,16.4,16.4,16.4c9.1,0,16.4-7.4,16.4-16.4C713.8,105.9,706.3,98.6,697.3,98.6 M750.2,98.6c-9.1,0-16.4,7.4-16.4,16.4
	c0,9.1,7.4,16.4,16.4,16.4c9.1,0,16.4-7.4,16.4-16.4C766.6,105.9,759.3,98.6,750.2,98.6 M856,98.6c-9.1,0-16.4,7.4-16.4,16.4
	c0,9.1,7.4,16.4,16.4,16.4c9.1,0,16.4-7.4,16.4-16.4C872.5,105.9,865.1,98.6,856,98.6 M909,98.6c-9.1,0-16.4,7.4-16.4,16.4
	c0,9.1,7.4,16.4,16.4,16.4c9.1,0,16.4-7.4,16.4-16.4C925.5,105.9,918.1,98.6,909,98.6 M115,151.5c-9.1,0-16.4,7.4-16.4,16.4
	c0,9.1,7.4,16.4,16.4,16.4c9.1,0,16.4-7.4,16.4-16.4S124.1,151.5,115,151.5 M803.1,151.5c-9.1,0-16.4,7.4-16.4,16.4
	c0,9.1,7.4,16.4,16.4,16.4c9.1,0,16.4-7.4,16.4-16.4S812.2,151.5,803.1,151.5 M856,151.5c-9.1,0-16.4,7.4-16.4,16.4
	c0,9.1,7.4,16.4,16.4,16.4c9.1,0,16.4-7.4,16.4-16.4C872.5,158.9,865.1,151.5,856,151.5 M115,204.4c-9.1,0-16.4,7.4-16.4,16.4
	c0,9.1,7.4,16.4,16.4,16.4c9.1,0,16.4-7.4,16.4-16.4S124.1,204.5,115,204.4 M750.2,204.4c-9.1,0-16.4,7.4-16.4,16.4
	c0,9.1,7.4,16.4,16.4,16.4c9.1,0,16.4-7.4,16.4-16.4C766.6,211.8,759.3,204.5,750.2,204.4 M856,204.4c-9.1,0-16.4,7.4-16.4,16.4
	c0,9.1,7.4,16.4,16.4,16.4c9.1,0,16.4-7.4,16.4-16.4C872.5,211.8,865.1,204.5,856,204.4 M115,257.4c-9.1,0-16.4,7.4-16.4,16.4
	c0,9.1,7.4,16.4,16.4,16.4c9.1,0,16.4-7.4,16.4-16.4C131.4,264.7,124.1,257.4,115,257.4 M168,257.4c-9.1,0-16.4,7.4-16.4,16.4
	c0,9.1,7.4,16.4,16.4,16.4c9.1,0,16.4-7.4,16.4-16.4C184.4,264.7,177,257.4,168,257.4 M803.1,257.4c-9.1,0-16.4,7.4-16.4,16.4
	c0,9.1,7.4,16.4,16.4,16.4c9.1,0,16.4-7.4,16.4-16.4C819.5,264.7,812.2,257.4,803.1,257.4 M909,257.4c-9.1,0-16.4,7.4-16.4,16.4
	c0,9.1,7.4,16.4,16.4,16.4c9.1,0,16.4-7.4,16.4-16.4C925.5,264.7,918,257.4,909,257.4 M962,257.4c-9.1,0-16.4,7.4-16.4,16.4
	c0,9.1,7.4,16.4,16.4,16.4c9.1,0,16.4-7.4,16.4-16.4C978.4,264.7,971,257.4,962,257.4 M115,310.3c-9.1,0-16.4,7.4-16.4,16.4
	c0,9.1,7.4,16.4,16.4,16.4c9.1,0,16.4-7.4,16.4-16.4C131.5,317.7,124.1,310.3,115,310.3L115,310.3 M168,310.3
	c-9.1,0-16.4,7.4-16.4,16.4c0,9.1,7.4,16.4,16.4,16.4s16.4-7.4,16.4-16.4S177,310.3,168,310.3 M750.2,310.3
	c-9.1,0-16.4,7.4-16.4,16.4c0,9.1,7.4,16.4,16.4,16.4s16.4-7.4,16.4-16.4C766.6,317.7,759.3,310.3,750.2,310.3 M962,310.3
	c-9.1,0-16.4,7.4-16.4,16.4c0,9.1,7.4,16.4,16.4,16.4c9.1,0,16.4-7.4,16.4-16.4S971,310.3,962,310.3 M62.1,363.2
	c-9.1,0-16.4,7.4-16.4,16.4c0,9.1,7.4,16.4,16.4,16.4s16.4-7.4,16.4-16.4S71.2,363.2,62.1,363.2 M168,363.2
	c-9.1,0-16.4,7.4-16.4,16.4c0,9.1,7.4,16.4,16.4,16.4s16.4-7.4,16.4-16.4S177,363.2,168,363.2 M750.2,363.2
	c-9.1,0-16.4,7.4-16.4,16.4c0,9.1,7.4,16.4,16.4,16.4s16.4-7.4,16.4-16.4C766.6,370.6,759.3,363.2,750.2,363.2 M803.1,363.2
	c-9.1,0-16.4,7.4-16.4,16.4c0,9.1,7.4,16.4,16.4,16.4s16.4-7.4,16.4-16.4S812.2,363.2,803.1,363.2L803.1,363.2 M962,363.2
	c-9.1,0-16.4,7.4-16.4,16.4c0,9.1,7.4,16.4,16.4,16.4c9.1,0,16.4-7.4,16.4-16.4S971,363.2,962,363.2 M62.1,416.2
	c-9.1,0-16.4,7.4-16.4,16.4c0,9.1,7.4,16.4,16.4,16.4c9.1,0,16.4-7.4,16.4-16.4C78.5,423.5,71.2,416.2,62.1,416.2 M962,416.2
	c-9.1,0-16.4,7.4-16.4,16.4c0,9.1,7.4,16.4,16.4,16.4c9.1,0,16.4-7.4,16.4-16.4C978.4,423.5,971,416.2,962,416.2 M856,469.1
	c-9.1,0-16.4,7.4-16.4,16.4c0,9.1,7.4,16.4,16.4,16.4c9.1,0,16.4-7.4,16.4-16.4C872.5,476.5,865.1,469.1,856,469.1 M909,469.1
	c-9.1,0-16.4,7.4-16.4,16.4c0,9.1,7.4,16.4,16.4,16.4c9.1,0,16.4-7.4,16.4-16.4S918,469.1,909,469.1 M962,469.1
	c-9.1,0-16.4,7.4-16.4,16.4c0,9.1,7.4,16.4,16.4,16.4c9.1,0,16.4-7.4,16.4-16.4S971,469.1,962,469.1 M909,522
	c-9.1,0-16.4,7.4-16.4,16.4c0,9.1,7.4,16.4,16.4,16.4l0,0c9.1,0,16.4-7.4,16.4-16.4S918.1,522,909,522 M220.9,575
	c-9.1,0-16.4,7.4-16.4,16.4c0,9.1,7.4,16.4,16.4,16.4l0,0c9.1,0,16.4-7.4,16.4-16.4C237.3,582.3,230,575,220.9,575 M856,575
	c-9.1,0-16.4,7.4-16.4,16.4c0,9.1,7.4,16.4,16.4,16.4s16.4-7.4,16.4-16.4C872.5,582.3,865.1,575,856,575 M909,575
	c-9.1,0-16.4,7.4-16.4,16.4c0,9.1,7.4,16.4,16.4,16.4l0,0c9.1,0,16.4-7.4,16.4-16.4C925.5,582.3,918.1,575,909,575 M115,627.9
	c-9.1,0-16.4,7.4-16.4,16.4c0,9.1,7.4,16.4,16.4,16.4c9.1,0,16.4-7.4,16.4-16.4C131.4,635.3,124.1,627.9,115,627.9 M962,627.9
	c-9.1,0-16.4,7.4-16.4,16.4c0,9.1,7.4,16.4,16.4,16.4c9.1,0,16.4-7.4,16.4-16.4C978.4,635.3,971,627.9,962,627.9 M115,680.8
	c-9.1,0-16.4,7.4-16.4,16.4c0,9.1,7.4,16.4,16.4,16.4c9.1,0,16.4-7.4,16.4-16.4S124.1,680.8,115,680.8 M115,733.8
	c-9.1,0-16.4,7.4-16.4,16.4c0,9.1,7.4,16.4,16.4,16.4c9.1,0,16.4-7.4,16.4-16.4C131.4,741.1,124.1,733.8,115,733.8 M909,733.8
	c-9.1,0-16.4,7.4-16.4,16.4c0,9.1,7.4,16.4,16.4,16.4c9.1,0,16.4-7.4,16.4-16.4C925.5,741.1,918,733.8,909,733.8 M115,786.7
	c-9.1,0-16.4,7.4-16.4,16.4c0,9.1,7.4,16.4,16.4,16.4c9.1,0,16.4-7.4,16.4-16.4C131.4,794,124.1,786.7,115,786.7 M168,786.7
	c-9.1,0-16.4,7.4-16.4,16.4c0,9.1,7.4,16.4,16.4,16.4c9.1,0,16.4-7.4,16.4-16.4C184.4,794,177,786.7,168,786.7 M803.1,786.7
	c-9.1,0-16.4,7.4-16.4,16.4c0,9.1,7.4,16.4,16.4,16.4c9.1,0,16.4-7.4,16.4-16.4C819.5,794,812.2,786.7,803.1,786.7 M962,786.7
	c-9.1,0-16.4,7.4-16.4,16.4c0,9.1,7.4,16.4,16.4,16.4c9.1,0,16.4-7.4,16.4-16.4C978.4,794,971,786.7,962,786.7 M115,839.6
	c-9.1,0-16.4,7.4-16.4,16.4c0,9.1,7.4,16.4,16.4,16.4c9.1,0,16.4-7.4,16.4-16.4S124.1,839.6,115,839.6 M168,839.6
	c-9.1,0-16.4,7.4-16.4,16.4c0,9.1,7.4,16.4,16.4,16.4c9.1,0,16.4-7.4,16.4-16.4S177,839.6,168,839.6 M326.8,839.6
	c-9.1,0-16.4,7.4-16.4,16.4c0,9.1,7.4,16.4,16.4,16.4c9.1,0,16.4-7.4,16.4-16.4S335.8,839.6,326.8,839.6 M379.8,839.6
	c-9.1,0-16.4,7.4-16.4,16.4c0,9.1,7.4,16.4,16.4,16.4c9.1,0,16.4-7.4,16.4-16.4S388.8,839.6,379.8,839.6 M644.3,839.6
	c-9.1,0-16.4,7.4-16.4,16.4c0,9.1,7.4,16.4,16.4,16.4c9.1,0,16.4-7.4,16.4-16.4S653.5,839.6,644.3,839.6 M803.1,839.6
	c-9.1,0-16.4,7.4-16.4,16.4c0,9.1,7.4,16.4,16.4,16.4c9.1,0,16.4-7.4,16.4-16.4S812.2,839.6,803.1,839.6 M856,839.6
	c-9.1,0-16.4,7.4-16.4,16.4c0,9.1,7.4,16.4,16.4,16.4c9.1,0,16.4-7.4,16.4-16.4C872.5,847,865.1,839.6,856,839.6 M115,892.5
	c-9.1,0-16.4,7.4-16.4,16.4c0,9.1,7.4,16.4,16.4,16.4c9.1,0,16.4-7.4,16.4-16.4S124.1,892.6,115,892.5 M326.8,892.5
	c-9.1,0-16.4,7.4-16.4,16.4c0,9.1,7.4,16.4,16.4,16.4c9.1,0,16.4-7.4,16.4-16.4S335.8,892.6,326.8,892.5 M379.8,892.5
	c-9.1,0-16.4,7.4-16.4,16.4c0,9.1,7.4,16.4,16.4,16.4c9.1,0,16.4-7.4,16.4-16.4S388.8,892.6,379.8,892.5 M432.6,892.5
	c-9.1,0-16.4,7.4-16.4,16.4c0,9.1,7.4,16.4,16.4,16.4c9.1,0,16.4-7.4,16.4-16.4S441.8,892.6,432.6,892.5 M485.5,892.5
	c-9.1,0-16.4,7.4-16.4,16.4c0,9.1,7.4,16.4,16.4,16.4c9.1,0,16.4-7.4,16.4-16.4S494.6,892.6,485.5,892.5 M591.5,892.5
	c-9.1,0-16.4,7.4-16.4,16.4c0,9.1,7.4,16.4,16.4,16.4c9.1,0,16.4-7.4,16.4-16.4C607.8,899.9,600.5,892.6,591.5,892.5 M697.3,892.5
	c-9.1,0-16.4,7.4-16.4,16.4c0,9.1,7.4,16.4,16.4,16.4c9.1,0,16.4-7.4,16.4-16.4S706.3,892.6,697.3,892.5 M750.2,892.5
	c-9.1,0-16.4,7.4-16.4,16.4c0,9.1,7.4,16.4,16.4,16.4c9.1,0,16.4-7.4,16.4-16.4C766.6,899.9,759.3,892.6,750.2,892.5 M220.9,945.5
	c-9.1,0-16.4,7.4-16.4,16.4c0,9.1,7.4,16.4,16.4,16.4l0,0c9.1,0,16.4-7.4,16.4-16.4C237.3,952.8,230,945.5,220.9,945.5 M273.8,945.5
	c-9.1,0-16.4,7.4-16.4,16.4c0,9.1,7.4,16.4,16.4,16.4s16.4-7.4,16.4-16.4C290.2,952.8,282.9,945.5,273.8,945.5 M326.8,945.5
	c-9.1,0-16.4,7.4-16.4,16.4c0,9.1,7.4,16.4,16.4,16.4s16.4-7.4,16.4-16.4C343.2,952.8,335.8,945.5,326.8,945.5 M591.5,945.5
	c-9.1,0-16.4,7.4-16.4,16.4c0,9.1,7.4,16.4,16.4,16.4s16.4-7.4,16.4-16.4C607.8,952.8,600.5,945.5,591.5,945.5 M750.2,945.5
	c-9.1,0-16.4,7.4-16.4,16.4c0,9.1,7.4,16.4,16.4,16.4s16.4-7.4,16.4-16.4C766.6,952.8,759.3,945.5,750.2,945.5 M803.1,945.5
	c-9.1,0-16.4,7.4-16.4,16.4c0,9.1,7.4,16.4,16.4,16.4l0,0c9.1,0,16.4-7.4,16.4-16.4C819.5,952.8,812.2,945.5,803.1,945.5"/>
<linearGradient id="SVGID_2_" gradientUnits="userSpaceOnUse" x1="1008.7392" y1="177.3449" x2="194.7392" y2="785.3449">
	<stop  offset="0" style="stop-color:#FFFF00"/>
	<stop  offset="1" style="stop-color:#FF99FF"/>
</linearGradient>
<path class="st1" d="M519.1,180.8c27,0,54.4,5.9,79.1,16.9c40.8,18.3,74.2,52.9,90.7,94.6c9.5,23.9,9.7,51.4,9.5,76.7
	c-0.1,14.6-0.8,29.2-1.7,43.8c-0.4,7.3-0.9,14.6-1.3,22c-0.2,4-0.5,8-0.7,12.1c-0.2,2.6-1,6.1-0.5,8.6c1.2,5.6,10.2,9.4,15.1,10.9
	c13,4.1,26.5,1.1,39-3.3c7.4-2.6,14.1-7.1,22.3-6.3c5.9,0.5,12.8,3.2,17,7.5c4.4,4.5,3.5,8.9-0.3,13.2c-7.2,8.2-19.1,12.9-29.2,16.2
	c-11,3.6-22.2,6.9-32.5,12.4c-10.1,5.5-19.5,13.3-23.5,24.4c-4.7,12.9-0.8,26.1,4.7,38.1c9.3,20.3,21.4,39.4,35.5,56.8
	c26.4,32.5,60.9,58.8,101.3,70.8c5.9,1.8,12,3.2,18,4.4c2.6,0.5,4.2-0.1,3.3,2.6c-0.1,0.3-0.4,0.7-0.5,1c-1.3,2.3-3.6,4.1-5.7,5.6
	c-11.9,8.7-27.6,12.7-41.7,16.2c-6.7,1.6-13.4,3-20.1,4.3c-6.7,1.3-14.9,1.3-21.1,4c-10.5,4.5-12,20.1-14.1,29.7
	c-0.8,3.8-1.7,7.5-2.7,11.2c-0.9,3.3-0.6,5-4.1,5c-6,0.1-12.1-1.5-18-2.6c-13.9-2.6-28-3.9-42.1-3.6c-15.4,0.4-31.2,2.2-45.6,8.1
	c-13.7,5.7-26,14.3-38.1,22.9c-21.1,14.9-42.6,29.7-68.3,35.4c-12.9,2.8-26.2,3.2-39.3,2.7c-14-0.5-27.8-3.4-40.8-8.6
	c-24.8-9.9-44.9-27.5-67.3-41.6c-12.7-8-26.2-14.3-41.1-16.7c-15.8-2.5-31.9-3-47.9-1.3c-6.2,0.7-12.3,1.6-18.5,2.8
	c-6,1.1-12.5,3.2-18.6,3c-2.9-0.1-2.9-1-3.7-3.7c-1.1-4-2.1-8.1-3-12.2c-1.4-6.2-2.5-12.7-4.8-18.7c-1.8-4.7-4.4-9.5-9.1-11.8
	c-6-2.9-14.3-2.8-20.8-4.1c-12.2-2.3-24.3-5-36.2-8.7c-10.2-3.2-22.4-7.1-30.1-15c-0.7-0.8-1.5-1.5-2-2.5c-0.2-0.3-0.4-0.6-0.5-0.9
	c-0.8-2.5,0.2-2.2,2.6-2.7c11.8-2.2,23.3-5.5,34.4-10c20.3-8.1,39-20,55.6-34.3c24.3-21,44.4-47,59.4-75.3
	c5.1-9.7,10.6-20.3,12.4-31.1c4.4-27.1-18-42.5-40.5-50.7c-12-4.4-24.3-7.3-35.4-13.7c-5.1-2.9-15-8.7-14.2-15.9
	c0.6-5.5,7.4-9.2,11.9-10.9c3.1-1.1,6.4-1.9,9.7-1.7c4,0.2,7.4,2.3,11,3.8c13.1,5.4,27.9,9.2,42.1,7c7.1-1.1,14.5-3.8,19.7-9.1
	c1.2-1.3,1.7-1.8,2-3.3c0.5-2.8-0.4-6.6-0.5-9.5c-0.5-7.6-0.9-15.2-1.4-22.7c-1.8-28.9-3.5-58-1.4-87c0.9-12.4,2.5-24.9,6.2-36.9
	c3.6-11.9,9.6-23.1,16.1-33.6c11.9-19.4,27.4-36.5,45.8-49.9c27-19.6,59.6-30.9,92.8-34.1C498,180.8,508.5,180.8,519.1,180.8"/>
<g>
	<path class="st2" d="M382,352.9c33.8,1,65.7,9.9,96.8,22.2c3.3,1.2,6.6,2.3,9.8,3.7c14.9,6.2,30.1,7,45.8,3.6
		c16.3-3.6,32.7-7.2,49.4-9.2c19.7-2.3,39.5-2.3,59.3-0.3c29.2,3,58.2,7.6,86.6,14.8c3.6,1,4.6,2.2,3.7,5.8
		c-1.4,6.1-2.3,12.4-3.3,18.5c-0.3,1.4-0.6,2.3-2.1,2.8c-6.3,1.8-9.9,6.6-12.4,12.3c-3.7,8.6-5.1,17.7-6.9,26.6
		c-1.8,8.8-4.3,17.4-8,25.7c-10.1,22.2-27.2,35.6-51.3,38.8c-24.7,3.3-48.6-0.1-71.2-10.9c-22.2-10.6-35.9-28.7-43.6-51.6
		c-3.6-10.8-6.2-21.7-9.4-32.6c-3.2-10.8-4.4-14.9-20.7-14.6c-4.8,0.1-8,2.6-10.2,6.6c-3.6,6.5-6.3,13.5-9.4,20.3
		c-3,6.6-5.9,13.1-9.4,19.5c-15.2,27-38.3,41.8-69,45.1c-16.4,1.8-32.8,1.1-48.8-3.2c-28.3-7.6-44.3-26.3-49.8-54.8
		c-2.2-11.3-1.9-22.9-3-34.3c-0.4-4.7-1.1-9.2-2.6-13.7c-1.7-5.2-4.6-9.7-9.8-12.1c-1.4-0.7-1.8-1.5-1.8-3
		c-0.1-6.8-0.1-13.5-0.6-20.3c-0.1-2.9,1-3.4,3.4-3.7c20-1.9,40-2.8,60-2.6C363.1,352.2,372.5,352.6,382,352.9z M624.5,509.6
		c27.5,2.2,48.7-8,62.5-32.1c8.3-14.6,11.4-31,12-47.6c0.4-15.7-7.2-27.3-21.1-34.8c-5.1-2.8-10.3-4.8-15.9-6.2
		c-22.2-5.5-44.7-6.5-67.3-4.7c-10.9,0.8-21.4,3-31.2,8.1c-11.4,6.1-17.5,15.6-18.1,28.7c-0.3,8.1,1.4,16,2.6,23.9
		c4.1,26.6,17.7,46.2,42.9,56.8C601.8,506.3,613,508.6,624.5,509.6z M393,366.4c-5.5-0.4-10.9-1.1-16.4-1.2c-11.2-0.1-22.3,1-33,5
		c-13,5-21.4,14.1-24.3,27.9c-2.5,12.6-1.8,25.1,0.4,37.5c4.1,24,16.4,42.4,40.1,51.2c14.1,5.2,28.8,5.2,43.5,3.4
		c26.3-3.2,46.4-15.9,57.8-40.4c4.6-9.8,7.6-20,9.9-30.5c3.4-15.9-1.8-28-15.3-37c-3.7-2.5-7.6-4.4-11.7-6.1
		C427.8,369.8,410.5,367.5,393,366.4z M308.5,371.9c3.4,0.1,7.4,0.1,11.2-1.2c0.8-0.3,1.7-0.7,1.5-1.7c0-0.8-0.7-1.1-1.4-1.4
		c-6.2-1.8-12.4-1.9-18.5,0.1c-0.7,0.3-1.4,0.6-1.2,1.5c0.1,0.8,0.8,1.1,1.4,1.4C303.6,371.5,305.8,371.6,308.5,371.9z M710,396.4
		c-2.1,0.1-4.1,0.1-6.2,0.3c-1,0-2.1,0.1-2.3,1.2c-0.3,1.1,0.8,1.7,1.7,1.9c5.4,2.5,11,3.3,17,2.6c1-0.1,2.1-0.1,2.2-1.2
		c0.3-1.4-1-1.8-1.9-2.2C717.1,397.7,713.6,396.9,710,396.4z"/>
	<path class="st3" d="M624.5,509.6c-11.6-1-22.9-3.3-33.5-7.9c-25.2-10.6-38.8-30.2-42.9-56.8c-1.2-7.9-2.9-15.7-2.6-23.9
		c0.6-13.1,6.6-22.5,18.1-28.7c9.8-5.2,20.3-7.3,31.2-8.1c22.6-1.8,45.1-0.8,67.3,4.7c5.5,1.4,10.9,3.4,15.9,6.2
		c13.8,7.4,21.5,18.9,21.1,34.8c-0.6,16.7-3.6,33-12,47.6C673.2,501.6,652.1,511.8,624.5,509.6z"/>
	<path class="st3" d="M393,366.4c17.5,1.1,34.8,3.4,51.2,10.1c4.1,1.7,8,3.6,11.7,6.1c13.5,9,18.9,21.1,15.3,37
		c-2.3,10.5-5.4,20.7-9.9,30.5c-11.4,24.6-31.5,37.2-57.8,40.4c-14.6,1.8-29.4,1.8-43.5-3.4c-23.7-8.8-36-27.2-40.1-51.2
		c-2.2-12.4-2.9-25-0.4-37.5c2.8-13.9,11.3-22.9,24.3-27.9c10.6-4.1,21.7-5.1,33-5C382,365.3,387.5,366,393,366.4z"/>
	<path class="st4" d="M308.5,371.9c-2.6-0.3-4.8-0.4-6.9-1.2c-0.7-0.3-1.4-0.6-1.4-1.4c-0.1-0.8,0.6-1.2,1.2-1.5
		c6.2-2.1,12.3-1.9,18.5-0.1c0.7,0.1,1.4,0.6,1.4,1.4c0,1-0.8,1.4-1.5,1.7C315.9,371.9,311.9,372,308.5,371.9z"/>
	<path class="st4" d="M710,396.4c3.6,0.4,7.2,1.2,10.5,2.8c0.8,0.4,2.2,0.8,1.9,2.2c-0.1,1.1-1.4,1.1-2.2,1.2
		c-5.9,0.7-11.6-0.3-17-2.6c-0.8-0.4-1.9-0.8-1.7-1.9c0.3-1.1,1.4-1.2,2.3-1.2C705.8,396.6,707.8,396.4,710,396.4z"/>
</g>
<g>
	<g>
		<path class="st5" d="M246.5,499.4c-0.7-1.1-1.5-2.1-2.1-3.2c-0.5-0.8-1-1-1.9-1.1c-6.6-0.5-12.4-2.7-16.8-7.8
			c-4.2-4.8-5.6-10.6-5-16.7c0.4-4.3,1-8.5,0.9-12.8c-0.3-9.5,0.4-9.3-2.8-16.1"/>
		<g>
			<path d="M215.1,410.6c1.4,2.5,2.8,4.8,4.3,7.4c-4.6,0.9-9,1.8-13.6,2.8c0.9,1.4,1.7,2.5,2.4,3.7c6,9.5,8.9,20,9.2,31.2
				c0.1,5.1-0.5,10-1,15c-0.7,7.2,1,14,5.9,19.7c5.1,6,11.8,8.6,19.5,9.2c1,0.1,1.7,0.4,2.2,1.3c0.8,1.3,1.7,2.5,2.5,3.7
				c1.1,1.7,2.3,3.2,4.8,2.2c2.3,11.4,4.6,22.6,6.9,33.9c-2.9,0.8-5.7,1.5-8.6,2.4c-2.8,0.8-5.6,1.6-7.9,3.5c0,0.2,0,0.3,0,0.5
				c0.8,0.2,1.5,0.5,2.3,0.5c3.5-0.2,7-0.5,10.5-0.8c0.5,0,1-0.1,1.4-0.1c4.4-0.9,8.8-1.8,13.1-2.7c2.3-0.7,4.7-1.4,7-2.2
				c1.6-0.6,3.2-1.2,4.7-1.9c0.4-0.2,0.7-0.7,1-1.1c-0.5-0.2-1-0.7-1.4-0.7c-3.3,0.1-6.6,0.3-9.9,0.6c-1.7,0.1-3.4,0.5-5.1,0.8
				c-0.8,0.1-1.2-0.1-1.4-0.9c-2.1-10.6-4.3-21.1-6.5-31.7c-0.2-0.9,0-1.3,0.9-1.4c1.5-0.2,2.3-1.2,2.6-2.6c0.3-1.8,0.8-3.6,1-5.4
				c0.2-1.3,0.8-2,1.9-2.5c4.1-2.1,7.6-5.1,10.3-8.9c4.3-6.1,5.4-12.9,3.8-20.1c-0.8-3.5-2.4-6.7-4.3-9.8
				c-5.3-9.1-8.7-18.9-9.5-29.5c-0.4-5.5-0.1-10.8,1.1-16.2c0.1-0.4,0.1-0.9,0.2-1.3c0-0.1-0.1-0.2-0.1-0.3c-0.5,0.1-1,0.2-1.5,0.3
				c-13.1,2.7-26.3,5.3-39.4,8.1c-1.1,0.2-1.7,0-2.3-1c-1.3-2.4-2.7-4.8-4.1-7.2c7.4-4.3,14.6-8.5,22.2-12.9
				c-2.1-0.4-3.8-0.8-5.6-1.1c-7-1.3-14-2.7-21-4c-2.9-0.6-5.7-1.2-8.6-1.8c-0.1,0-0.2,0-0.3,0.1c-3.9,11.2-7.8,22.4-11.7,33.7
				c0.1,0.1,0.2,0.2,0.3,0.3C200.8,418.9,207.9,414.8,215.1,410.6z M206,397.4c0.6,4.3,1.1,8.7,1.6,13c0,0.3-0.2,0.8-0.4,1
				c-2.5,1.5-5,2.9-7.6,4.4c-0.1-0.1-0.2-0.1-0.3-0.2c2.1-6.1,4.2-12.2,6.3-18.3C205.8,397.3,205.9,397.4,206,397.4z M222,401.9
				c-3.3-2.4-6.5-4.9-9.8-7.3c-0.2-0.2-0.4-0.4-0.8-0.9c6.7,1.3,13,2.5,19.5,3.7c-0.3,0.3-0.4,0.5-0.5,0.6c-2.4,1.4-4.8,2.8-7.2,4.1
				C222.9,402.3,222.3,402.1,222,401.9z M213.8,427.6c-0.6-1.5-1.5-2.9-2.4-4.5c3.2-0.6,6.2-1.3,9.2-1.8c0.3-0.1,0.9,0.5,1.1,0.8
				c2.4,4.1,29.3,50.3,31.7,54.4l6,3.4c-2.5-4.4-29.5-50.7-32-55c-0.8-1.5-1.7-2.9-2.6-4.5c12.3-2.5,24.3-5,36.7-7.5
				c-1,6.3-2,11.5-1.1,17.9c0,0,1.2,6.8,2.2,9.9s3,9.9,7.5,17.4c1.6,2.7,3,5.3,3.7,8.3c1.4,6.1,0.4,11.9-3.3,17.1
				c-2.3,3.3-5.3,5.8-8.9,7.6c-1,0.5-1.5,1-1.6,2.1c-0.2,1.5-0.6,3.1-0.9,4.6c-0.7,3.1-10.1,5.2-12.5,1.6c-0.7-1-1.5-2.1-2.1-3.2
				c-0.5-0.8-1-1-1.9-1.1c-6.6-0.5-12.4-2.7-16.8-7.8c-4.2-4.8-5.6-10.6-5-16.7c0.4-4.3,1-8.5,0.9-12.8c-0.1-5.2,0-11.4-1.5-16.3
				C219,436,213.8,427.6,213.8,427.6z M210.8,409.3c-0.5-4.3-1-8.4-1.5-12.4c0.1,0,0.2-0.1,0.4-0.1c3.2,2.4,6.5,4.9,10,7.5
				C216.6,406,213.8,407.6,210.8,409.3z"/>
		</g>
		<path class="st6" d="M243.9,436.1c4.6-2.6,9.9-4.6,16.3-3.8c0.5,0.1,0.2,0,0.9,0.1c0.7,9,4.5,18,9,25.7c1.6,2.7,3,5.3,3.7,8.3
			c1.4,6.1,0.4,11.9-3.3,17.1c-2.3,3.3-5.3,5.8-8.9,7.6c-1,0.5-1.5,1-1.6,2.1c-0.2,1.5-0.6,3.1-0.9,4.6c-0.7,3.1-10.1,5.2-12.5,1.6
			c-0.7-1-1.5-2.1-2.1-3.2c-0.5-0.8-1-1-1.9-1.1c-6.6-0.5-12.4-2.7-16.8-7.8c-4.2-4.8-5.6-10.6-5-16.7c0.4-4.3,1-8.5,0.9-12.8
			c-0.2-5.6,0.1-12-1.7-17.1c0.3,0.8-0.6,1.2,0.2,1.5c3.6,1.2,6,1.7,10.4,1C234.9,442.6,238,439.4,243.9,436.1z"/>
	</g>
	<path class="st3" d="M206,397.4c0.6,4.3,1.1,8.7,1.6,13c0,0.3-0.2,0.8-0.4,1c-2.5,1.5-5,2.9-7.6,4.4c-0.1-0.1-0.2-0.1-0.3-0.2
		c2.1-6.1,4.2-12.2,6.3-18.3C205.8,397.3,205.9,397.4,206,397.4z"/>
	<path class="st3" d="M210.8,409.3c-0.5-4.3-1-8.4-1.5-12.4c0.1,0,0.2-0.1,0.4-0.1c3.2,2.4,6.5,4.9,10,7.5
		C216.6,406,213.8,407.6,210.8,409.3z"/>
	<path class="st3" d="M222,401.9c-3.3-2.4-6.5-4.9-9.8-7.3c-0.2-0.2-0.4-0.4-0.8-0.9c6.7,1.3,13,2.5,19.5,3.7
		c-0.3,0.3-0.4,0.5-0.5,0.6c-2.4,1.4-4.8,2.8-7.2,4.1C222.9,402.3,222.3,402.1,222,401.9z"/>
</g>
</svg>
