<?xml version="1.0" encoding="utf-8"?>
<!-- Generator: Adobe Illustrator 19.0.0, SVG Export Plug-In . SVG Version: 6.00 Build 0)  -->
<!DOCTYPE svg PUBLIC "-//W3C//DTD SVG 1.1//EN" "http://www.w3.org/Graphics/SVG/1.1/DTD/svg11.dtd">
<svg version="1.1" id="Layer_1" xmlns="http://www.w3.org/2000/svg" xmlns:xlink="http://www.w3.org/1999/xlink" x="0px" y="0px"
	 viewBox="112 -112 1024 1024" style="enable-background:new 112 -112 1024 1024;" xml:space="preserve">
<style type="text/css">
	.st0{fill:url(#SVGID_1_);}
	.st1{fill:#FFFFFF;}
	.st2{fill:#020202;}
	.st3{fill:#FD358A;}
	.st4{fill:#A9E700;}
	.st5{fill:#FCEE21;}
</style>
<path d="M631.1,68.8c27,0,54.4,5.9,79.1,16.9c40.8,18.3,74.2,52.9,90.7,94.6c9.5,23.9,9.7,51.4,9.5,76.7
	c-0.1,14.6-0.8,29.2-1.7,43.8c-0.4,7.3-0.9,14.6-1.3,22c-0.2,4-0.5,8-0.7,12.1c-0.2,2.6-1,6.1-0.5,8.6c1.2,5.6,10.2,9.4,15.1,10.9
	c13,4.1,26.5,1.1,39-3.3c7.4-2.6,14.1-7.1,22.3-6.3c5.9,0.5,12.8,3.2,17,7.5c4.4,4.5,3.5,8.9-0.3,13.2c-7.2,8.2-19.1,12.9-29.2,16.2
	c-11,3.6-22.2,6.9-32.5,12.4c-10.1,5.5-19.5,13.3-23.5,24.4c-4.7,12.9-0.8,26.1,4.7,38.1c9.3,20.3,21.4,39.4,35.5,56.8
	c26.4,32.5,60.9,58.8,101.3,70.8c5.9,1.8,12,3.2,18,4.4c2.6,0.5,4.2-0.1,3.3,2.6c-0.1,0.3-0.4,0.7-0.5,1c-1.3,2.3-3.6,4.1-5.7,5.6
	c-11.9,8.7-27.6,12.7-41.7,16.2c-6.7,1.6-13.4,3-20.1,4.3c-6.7,1.3-14.9,1.3-21.1,4c-10.5,4.5-12,20.1-14.1,29.7
	c-0.8,3.8-1.7,7.5-2.7,11.2c-0.9,3.3-0.6,5-4.1,5c-6,0.1-12.1-1.5-18-2.6c-13.9-2.6-28-3.9-42.1-3.6c-15.4,0.4-31.2,2.2-45.6,8.1
	c-13.7,5.7-26,14.3-38.1,22.9c-21.1,14.9-42.6,29.7-68.3,35.4c-12.9,2.8-26.2,3.2-39.3,2.7c-14-0.5-27.8-3.4-40.8-8.6
	c-24.8-9.9-44.9-27.5-67.3-41.6c-12.7-8-26.2-14.3-41.1-16.7c-15.8-2.5-31.9-3-47.9-1.3c-6.2,0.7-12.3,1.6-18.5,2.8
	c-6,1.1-12.5,3.2-18.6,3c-2.9-0.1-2.9-1-3.7-3.7c-1.1-4-2.1-8.1-3-12.2c-1.4-6.2-2.5-12.7-4.8-18.7c-1.8-4.7-4.4-9.5-9.1-11.8
	c-6-2.9-14.3-2.8-20.8-4.1c-12.2-2.3-24.3-5-36.2-8.7c-10.2-3.2-22.4-7.1-30.1-15c-0.7-0.8-1.5-1.5-2-2.5c-0.2-0.3-0.4-0.6-0.5-0.9
	c-0.8-2.5,0.2-2.2,2.6-2.7c11.8-2.2,23.3-5.5,34.4-10c20.3-8.1,39-20,55.6-34.3c24.3-21,44.4-47,59.4-75.3
	c5.1-9.7,10.6-20.3,12.4-31.1c4.4-27.1-18-42.5-40.5-50.7c-12-4.4-24.3-7.3-35.4-13.7c-5.1-2.9-15-8.7-14.2-15.9
	c0.6-5.5,7.4-9.2,11.9-10.9c3.1-1.1,6.4-1.9,9.7-1.7c4,0.2,7.4,2.3,11,3.8c13.1,5.4,27.9,9.2,42.1,7c7.1-1.1,14.5-3.8,19.7-9.1
	c1.2-1.3,1.7-1.8,2-3.3c0.5-2.8-0.4-6.6-0.5-9.5c-0.5-7.6-0.9-15.2-1.4-22.7c-1.8-28.9-3.5-58-1.4-87c0.9-12.4,2.5-24.9,6.2-36.9
	c3.6-11.9,9.6-23.1,16.1-33.6c11.9-19.4,27.4-36.5,45.8-49.9c27-19.6,59.6-30.9,92.8-34.1C609.9,68.8,620.5,68.8,631.1,68.8
	 M112,748.2c0,90.5,73.4,163.8,163.8,163.8h696.3c90.5,0,163.8-73.4,163.8-163.8V51.8c0-90.5-73.4-163.8-163.8-163.8H275.8
	C185.4-112,112-38.6,112,51.8V748.2"/>
<linearGradient id="SVGID_1_" gradientUnits="userSpaceOnUse" x1="131.2" y1="400" x2="1116.8" y2="400">
	<stop  offset="0" style="stop-color:#CA5A74"/>
	<stop  offset="1" style="stop-color:#CA5A74"/>
</linearGradient>
<path class="st0" d="M131.2,51.8C131.2-28,196-92.8,275.8-92.8h696.3c79.9,0,144.6,64.8,144.6,144.6v696.3
	c0,79.9-64.8,144.6-144.6,144.6H275.8c-79.9,0-144.6-64.8-144.6-144.6V51.8 M631.1,53.5c-24.5,0.1-48.2,1.6-71.9,8.3
	c-37.8,10.7-71.9,32.3-96.6,62.9c-15.4,19-28.7,41.6-34.4,65.4c-6.4,26.6-6.3,54.7-5.5,81.9c0.4,14.4,1.3,28.7,2.2,43.1
	c0.2,3.5,0.4,6.9,0.7,10.4c0.1,2.3,1.8,11.2,0.5,12.8c-2.9,3.3-12.1,3.1-15.9,2.9c-6.7-0.2-13.4-1.9-19.7-4
	c-6.9-2.4-13.5-6.5-20.9-7.3c-11.6-1.1-24.4,3.7-32.4,12.1c-13.6,14.4-5,31.3,9,41.1c11.3,7.9,24.3,12,37.2,16.2
	c10.7,3.5,22.5,7.6,30.7,15.7c11.9,11.8,5.2,27.4-1,40.4c-4.9,10.1-10.6,19.8-16.9,29.1c-21.3,31.7-49.7,59.5-84.5,75.9
	c-10.5,4.9-21.5,8.8-32.8,11.4c-5.5,1.3-12.3,1.4-17,4.7c-5.2,3.7-7.3,10-6.1,16.1c3.1,15.6,21.8,23.7,35,28.6
	c11.6,4.3,23.7,7.4,35.9,10c7.4,1.6,14.8,2.9,22.3,4.1c3.6,0.6,5.3,0.3,6.6,3.9c1,2.7,1.7,5.6,2.4,8.4c1.7,7,3,14,4.9,20.8
	c1.2,4.5,2.9,8.8,6.7,11.8c9.9,7.8,25.5,1.8,36.4-0.2c29.3-5.2,61.1-5,87.5,10.1c22.9,13.2,42.7,31,66.6,42.4
	c25.5,12.2,53.6,15.7,81.6,13.1c26.2-2.4,49.9-13.2,71.7-27.5c23.8-15.7,45.6-35.6,74.8-39.5c15.9-2.2,32-2,47.9,0.2
	c11,1.5,22.4,5.4,33.6,4.4c15.2-1.3,16.8-17.8,19.4-29.8c1.1-4.8,1.5-12,4.4-16.1c1.7-2.4,6.5-2.2,9.4-2.7c4.1-0.7,8.1-1.4,12.2-2.2
	c21.3-4.2,44.8-9,63.1-21.4c5.3-3.6,10.3-8.1,13-14.1c2.5-5.6,2.5-12.1-1.2-17.1c-3.9-5.3-9.6-5.9-15.5-7.1
	c-22.3-4.5-43.3-13.7-62.1-26.5c-28.7-19.6-52-46.8-69.4-76.8c-3.6-6.2-6.9-12.6-9.9-19.2c-4.6-10.1-8.8-22.1-1.6-32.1
	c6.7-9.2,18.7-13.8,29-17.5c12.7-4.5,25.5-7.9,37.2-14.9c8.5-5,17.5-12.2,19.9-22.3c6.4-26.6-31.6-40-51.3-31.6
	c-12.2,5.2-27,12-40.5,7.5c-0.9-0.3-2.4-0.6-3-1.2c-1.1-1.1-0.5-2.9-0.4-4.6c0.2-3.9,0.5-7.8,0.7-11.7c0.4-6,0.8-12,1.1-18.1
	c1.7-28.5,3-57.2,0.5-85.6c-1.2-12.6-3.1-25.3-7-37.4c-3.8-11.8-9.7-23.1-16.1-33.7c-11.9-19.8-27.1-37.5-45.2-51.7
	c-27.3-21.5-60.4-34.7-94.7-39.8C651.4,54.4,641.2,53.5,631.1,53.5 M491.7-66.3c-9.1,0-16.4,7.4-16.4,16.4c0,9.1,7.4,16.4,16.4,16.4
	c9.1,0,16.4-7.4,16.4-16.4C508.1-59,500.7-66.3,491.7-66.3 M597.5-66.3c-9.1,0-16.4,7.4-16.4,16.4c0,9.1,7.4,16.4,16.4,16.4
	c9.1,0,16.4-7.4,16.4-16.4C613.9-59,606.6-66.3,597.5-66.3 M703.4-66.3c-9.1,0-16.4,7.4-16.4,16.4c0,9.1,7.4,16.4,16.4,16.4
	c9.1,0,16.4-7.4,16.4-16.4C719.8-59,712.5-66.3,703.4-66.3 M227-13.4c-9.1,0-16.4,7.4-16.4,16.4c0,9.1,7.4,16.4,16.4,16.4
	c9.1,0,16.4-7.4,16.4-16.4C243.4-6.1,236.1-13.4,227-13.4 M438.7-13.4c-9.1,0-16.4,7.4-16.4,16.4c0,9.1,7.4,16.4,16.4,16.4
	c9.1,0,16.4-7.4,16.4-16.4C455.2-6.1,447.8-13.4,438.7-13.4 M491.7-13.4c-9.1,0-16.4,7.4-16.4,16.4c0,9.1,7.4,16.4,16.4,16.4
	c9.1,0,16.4-7.4,16.4-16.4C508.1-6.1,500.7-13.4,491.7-13.4 M597.5-13.4c-9.1,0-16.4,7.4-16.4,16.4c0,9.1,7.4,16.4,16.4,16.4
	c9.1,0,16.4-7.4,16.4-16.4C614-6.1,606.6-13.4,597.5-13.4 M650.5-13.4C641.4-13.4,634-6.1,634,3c0,9.1,7.4,16.4,16.4,16.4
	c9.1,0,16.4-7.4,16.4-16.4C666.9-6.1,659.5-13.4,650.5-13.4 M703.4-13.4C694.3-13.4,687-6.1,687,3c0,9.1,7.4,16.4,16.4,16.4
	c9.1,0,16.4-7.4,16.4-16.4C719.8-6.1,712.5-13.4,703.4-13.4 M809.3-13.4c-9.1,0-16.4,7.4-16.4,16.4c0,9.1,7.4,16.4,16.4,16.4
	c9.1,0,16.4-7.4,16.4-16.4C825.7-6.1,818.3-13.4,809.3-13.4 M862.2-13.4c-9.1,0-16.4,7.4-16.4,16.4c0,9.1,7.4,16.4,16.4,16.4
	c9.1,0,16.4-7.4,16.4-16.4C878.6-6.1,871.3-13.4,862.2-13.4 M968-13.4c-9.1,0-16.4,7.4-16.4,16.4c0,9.1,7.4,16.4,16.4,16.4
	c9.1,0,16.4-7.4,16.4-16.4C984.5-6.1,977.1-13.4,968-13.4 M1021-13.4c-9.1,0-16.4,7.4-16.4,16.4c0,9.1,7.4,16.4,16.4,16.4
	c9.1,0,16.4-7.4,16.4-16.4C1037.4-6.1,1030.1-13.4,1021-13.4 M227,39.5c-9.1,0-16.4,7.4-16.4,16.4c0,9.1,7.4,16.4,16.4,16.4
	c9.1,0,16.4-7.4,16.4-16.4C243.4,46.9,236.1,39.5,227,39.5 M915.1,39.5c-9.1,0-16.4,7.4-16.4,16.4c0,9.1,7.4,16.4,16.4,16.4
	c9.1,0,16.4-7.4,16.4-16.4C931.5,46.9,924.2,39.5,915.1,39.5 M968,39.5c-9.1,0-16.4,7.4-16.4,16.4c0,9.1,7.4,16.4,16.4,16.4
	c9.1,0,16.4-7.4,16.4-16.4C984.5,46.9,977.1,39.5,968,39.5 M227,92.4c-9.1,0-16.4,7.4-16.4,16.4c0,9.1,7.4,16.4,16.4,16.4
	c9.1,0,16.4-7.4,16.4-16.4C243.4,99.8,236.1,92.5,227,92.4 M862.2,92.4c-9.1,0-16.4,7.4-16.4,16.4c0,9.1,7.4,16.4,16.4,16.4
	c9.1,0,16.4-7.4,16.4-16.4C878.6,99.8,871.3,92.5,862.2,92.4 M968,92.4c-9.1,0-16.4,7.4-16.4,16.4c0,9.1,7.4,16.4,16.4,16.4
	c9.1,0,16.4-7.4,16.4-16.4C984.5,99.8,977.1,92.5,968,92.4 M227,145.4c-9.1,0-16.4,7.4-16.4,16.4c0,9.1,7.4,16.4,16.4,16.4
	c9.1,0,16.4-7.4,16.4-16.4C243.4,152.7,236.1,145.4,227,145.4 M280,145.4c-9.1,0-16.4,7.4-16.4,16.4c0,9.1,7.4,16.4,16.4,16.4
	c9.1,0,16.4-7.4,16.4-16.4C296.4,152.7,289,145.4,280,145.4 M915.1,145.4c-9.1,0-16.4,7.4-16.4,16.4c0,9.1,7.4,16.4,16.4,16.4
	c9.1,0,16.4-7.4,16.4-16.4C931.5,152.7,924.2,145.4,915.1,145.4 M1021,145.4c-9.1,0-16.4,7.4-16.4,16.4c0,9.1,7.4,16.4,16.4,16.4
	c9.1,0,16.4-7.4,16.4-16.4C1037.4,152.7,1030,145.4,1021,145.4 M1073.9,145.4c-9.1,0-16.4,7.4-16.4,16.4c0,9.1,7.4,16.4,16.4,16.4
	c9.1,0,16.4-7.4,16.4-16.4C1090.3,152.7,1083,145.4,1073.9,145.4 M227,198.3c-9.1,0-16.4,7.4-16.4,16.4c0,9.1,7.4,16.4,16.4,16.4
	c9.1,0,16.4-7.4,16.4-16.4C243.5,205.7,236.1,198.3,227,198.3L227,198.3 M280,198.3c-9.1,0-16.4,7.4-16.4,16.4
	c0,9.1,7.4,16.4,16.4,16.4s16.4-7.4,16.4-16.4C296.4,205.7,289,198.3,280,198.3 M862.2,198.3c-9.1,0-16.4,7.4-16.4,16.4
	c0,9.1,7.4,16.4,16.4,16.4s16.4-7.4,16.4-16.4C878.6,205.7,871.3,198.3,862.2,198.3 M1073.9,198.3c-9.1,0-16.4,7.4-16.4,16.4
	c0,9.1,7.4,16.4,16.4,16.4c9.1,0,16.4-7.4,16.4-16.4C1090.3,205.7,1083,198.3,1073.9,198.3 M174.1,251.2c-9.1,0-16.4,7.4-16.4,16.4
	c0,9.1,7.4,16.4,16.4,16.4s16.4-7.4,16.4-16.4C190.5,258.6,183.2,251.2,174.1,251.2 M280,251.2c-9.1,0-16.4,7.4-16.4,16.4
	c0,9.1,7.4,16.4,16.4,16.4s16.4-7.4,16.4-16.4C296.4,258.6,289,251.2,280,251.2 M862.2,251.2c-9.1,0-16.4,7.4-16.4,16.4
	c0,9.1,7.4,16.4,16.4,16.4s16.4-7.4,16.4-16.4C878.6,258.6,871.3,251.2,862.2,251.2 M915.1,251.2c-9.1,0-16.4,7.4-16.4,16.4
	c0,9.1,7.4,16.4,16.4,16.4s16.4-7.4,16.4-16.4C931.5,258.6,924.2,251.2,915.1,251.2L915.1,251.2 M1073.9,251.2
	c-9.1,0-16.4,7.4-16.4,16.4c0,9.1,7.4,16.4,16.4,16.4c9.1,0,16.4-7.4,16.4-16.4C1090.3,258.6,1083,251.2,1073.9,251.2 M174.1,304.2
	c-9.1,0-16.4,7.4-16.4,16.4c0,9.1,7.4,16.4,16.4,16.4c9.1,0,16.4-7.4,16.4-16.4C190.5,311.5,183.2,304.2,174.1,304.2 M1073.9,304.2
	c-9.1,0-16.4,7.4-16.4,16.4c0,9.1,7.4,16.4,16.4,16.4c9.1,0,16.4-7.4,16.4-16.4C1090.3,311.5,1083,304.2,1073.9,304.2 M968,357.1
	c-9.1,0-16.4,7.4-16.4,16.4c0,9.1,7.4,16.4,16.4,16.4c9.1,0,16.4-7.4,16.4-16.4C984.5,364.5,977.1,357.1,968,357.1 M1021,357.1
	c-9.1,0-16.4,7.4-16.4,16.4c0,9.1,7.4,16.4,16.4,16.4c9.1,0,16.4-7.4,16.4-16.4C1037.4,364.5,1030,357.1,1021,357.1 M1073.9,357.1
	c-9.1,0-16.4,7.4-16.4,16.4c0,9.1,7.4,16.4,16.4,16.4c9.1,0,16.4-7.4,16.4-16.4C1090.3,364.5,1083,357.1,1073.9,357.1 M1021,410
	c-9.1,0-16.4,7.4-16.4,16.4c0,9.1,7.4,16.4,16.4,16.4l0,0c9.1,0,16.4-7.4,16.4-16.4C1037.4,417.4,1030.1,410,1021,410 M332.9,463
	c-9.1,0-16.4,7.4-16.4,16.4c0,9.1,7.4,16.4,16.4,16.4l0,0c9.1,0,16.4-7.4,16.4-16.4C349.3,470.3,342,463,332.9,463 M968,463
	c-9.1,0-16.4,7.4-16.4,16.4c0,9.1,7.4,16.4,16.4,16.4s16.4-7.4,16.4-16.4C984.5,470.3,977.1,463,968,463 M1021,463
	c-9.1,0-16.4,7.4-16.4,16.4c0,9.1,7.4,16.4,16.4,16.4l0,0c9.1,0,16.4-7.4,16.4-16.4C1037.4,470.3,1030.1,463,1021,463 M227,515.9
	c-9.1,0-16.4,7.4-16.4,16.4c0,9.1,7.4,16.4,16.4,16.4c9.1,0,16.4-7.4,16.4-16.4C243.4,523.3,236.1,515.9,227,515.9 M1073.9,515.9
	c-9.1,0-16.4,7.4-16.4,16.4c0,9.1,7.4,16.4,16.4,16.4c9.1,0,16.4-7.4,16.4-16.4C1090.3,523.3,1083,515.9,1073.9,515.9 M227,568.8
	c-9.1,0-16.4,7.4-16.4,16.4c0,9.1,7.4,16.4,16.4,16.4c9.1,0,16.4-7.4,16.4-16.4C243.4,576.2,236.1,568.8,227,568.8 M227,621.8
	c-9.1,0-16.4,7.4-16.4,16.4c0,9.1,7.4,16.4,16.4,16.4c9.1,0,16.4-7.4,16.4-16.4C243.4,629.1,236.1,621.8,227,621.8 M1021,621.8
	c-9.1,0-16.4,7.4-16.4,16.4c0,9.1,7.4,16.4,16.4,16.4c9.1,0,16.4-7.4,16.4-16.4C1037.4,629.1,1030,621.8,1021,621.8 M227,674.7
	c-9.1,0-16.4,7.4-16.4,16.4c0,9.1,7.4,16.4,16.4,16.4c9.1,0,16.4-7.4,16.4-16.4C243.4,682,236.1,674.7,227,674.7 M280,674.7
	c-9.1,0-16.4,7.4-16.4,16.4c0,9.1,7.4,16.4,16.4,16.4c9.1,0,16.4-7.4,16.4-16.4C296.4,682,289,674.7,280,674.7 M915.1,674.7
	c-9.1,0-16.4,7.4-16.4,16.4c0,9.1,7.4,16.4,16.4,16.4c9.1,0,16.4-7.4,16.4-16.4C931.5,682,924.2,674.7,915.1,674.7 M1073.9,674.7
	c-9.1,0-16.4,7.4-16.4,16.4c0,9.1,7.4,16.4,16.4,16.4c9.1,0,16.4-7.4,16.4-16.4C1090.3,682,1083,674.7,1073.9,674.7 M227,727.6
	c-9.1,0-16.4,7.4-16.4,16.4c0,9.1,7.4,16.4,16.4,16.4c9.1,0,16.4-7.4,16.4-16.4C243.4,735,236.1,727.6,227,727.6 M280,727.6
	c-9.1,0-16.4,7.4-16.4,16.4c0,9.1,7.4,16.4,16.4,16.4c9.1,0,16.4-7.4,16.4-16.4C296.4,735,289,727.6,280,727.6 M438.7,727.6
	c-9.1,0-16.4,7.4-16.4,16.4c0,9.1,7.4,16.4,16.4,16.4c9.1,0,16.4-7.4,16.4-16.4C455.1,735,447.8,727.6,438.7,727.6 M491.7,727.6
	c-9.1,0-16.4,7.4-16.4,16.4c0,9.1,7.4,16.4,16.4,16.4c9.1,0,16.4-7.4,16.4-16.4C508.1,735,500.7,727.6,491.7,727.6 M756.3,727.6
	c-9.1,0-16.4,7.4-16.4,16.4c0,9.1,7.4,16.4,16.4,16.4c9.1,0,16.4-7.4,16.4-16.4C772.7,735,765.4,727.6,756.3,727.6 M915.1,727.6
	c-9.1,0-16.4,7.4-16.4,16.4c0,9.1,7.4,16.4,16.4,16.4c9.1,0,16.4-7.4,16.4-16.4C931.5,735,924.2,727.6,915.1,727.6 M968,727.6
	c-9.1,0-16.4,7.4-16.4,16.4c0,9.1,7.4,16.4,16.4,16.4c9.1,0,16.4-7.4,16.4-16.4C984.5,735,977.1,727.6,968,727.6 M227,780.5
	c-9.1,0-16.4,7.4-16.4,16.4c0,9.1,7.4,16.4,16.4,16.4c9.1,0,16.4-7.4,16.4-16.4C243.4,787.9,236.1,780.6,227,780.5 M438.7,780.5
	c-9.1,0-16.4,7.4-16.4,16.4c0,9.1,7.4,16.4,16.4,16.4c9.1,0,16.4-7.4,16.4-16.4C455.1,787.9,447.8,780.6,438.7,780.5 M491.7,780.5
	c-9.1,0-16.4,7.4-16.4,16.4c0,9.1,7.4,16.4,16.4,16.4c9.1,0,16.4-7.4,16.4-16.4C508.1,787.9,500.7,780.6,491.7,780.5 M544.6,780.5
	c-9.1,0-16.4,7.4-16.4,16.4c0,9.1,7.4,16.4,16.4,16.4c9.1,0,16.4-7.4,16.4-16.4C561,787.9,553.7,780.6,544.6,780.5 M597.5,780.5
	c-9.1,0-16.4,7.4-16.4,16.4c0,9.1,7.4,16.4,16.4,16.4c9.1,0,16.4-7.4,16.4-16.4C613.9,787.9,606.6,780.6,597.5,780.5 M703.4,780.5
	c-9.1,0-16.4,7.4-16.4,16.4c0,9.1,7.4,16.4,16.4,16.4c9.1,0,16.4-7.4,16.4-16.4C719.8,787.9,712.5,780.6,703.4,780.5 M809.3,780.5
	c-9.1,0-16.4,7.4-16.4,16.4c0,9.1,7.4,16.4,16.4,16.4c9.1,0,16.4-7.4,16.4-16.4C825.7,787.9,818.3,780.6,809.3,780.5 M862.2,780.5
	c-9.1,0-16.4,7.4-16.4,16.4c0,9.1,7.4,16.4,16.4,16.4c9.1,0,16.4-7.4,16.4-16.4C878.6,787.9,871.3,780.6,862.2,780.5 M332.9,833.5
	c-9.1,0-16.4,7.4-16.4,16.4c0,9.1,7.4,16.4,16.4,16.4l0,0c9.1,0,16.4-7.4,16.4-16.4C349.3,840.8,342,833.5,332.9,833.5 M385.8,833.5
	c-9.1,0-16.4,7.4-16.4,16.4c0,9.1,7.4,16.4,16.4,16.4s16.4-7.4,16.4-16.4C402.2,840.8,394.9,833.5,385.8,833.5 M438.7,833.5
	c-9.1,0-16.4,7.4-16.4,16.4c0,9.1,7.4,16.4,16.4,16.4s16.4-7.4,16.4-16.4C455.2,840.8,447.8,833.5,438.7,833.5 M703.4,833.5
	c-9.1,0-16.4,7.4-16.4,16.4c0,9.1,7.4,16.4,16.4,16.4s16.4-7.4,16.4-16.4C719.8,840.8,712.5,833.5,703.4,833.5 M862.2,833.5
	c-9.1,0-16.4,7.4-16.4,16.4c0,9.1,7.4,16.4,16.4,16.4s16.4-7.4,16.4-16.4C878.6,840.8,871.3,833.5,862.2,833.5 M915.1,833.5
	c-9.1,0-16.4,7.4-16.4,16.4c0,9.1,7.4,16.4,16.4,16.4l0,0c9.1,0,16.4-7.4,16.4-16.4C931.5,840.8,924.2,833.5,915.1,833.5"/>
<path class="st1" d="M631.1,68.8c27,0,54.4,5.9,79.1,16.9c40.8,18.3,74.2,52.9,90.7,94.6c9.5,23.9,9.7,51.4,9.5,76.7
	c-0.1,14.6-0.8,29.2-1.7,43.8c-0.4,7.3-0.9,14.6-1.3,22c-0.2,4-0.5,8-0.7,12.1c-0.2,2.6-1,6.1-0.5,8.6c1.2,5.6,10.2,9.4,15.1,10.9
	c13,4.1,26.5,1.1,39-3.3c7.4-2.6,14.1-7.1,22.3-6.3c5.9,0.5,12.8,3.2,17,7.5c4.4,4.5,3.5,8.9-0.3,13.2c-7.2,8.2-19.1,12.9-29.2,16.2
	c-11,3.6-22.2,6.9-32.5,12.4c-10.1,5.5-19.5,13.3-23.5,24.4c-4.7,12.9-0.8,26.1,4.7,38.1c9.3,20.3,21.4,39.4,35.5,56.8
	c26.4,32.5,60.9,58.8,101.3,70.8c5.9,1.8,12,3.2,18,4.4c2.6,0.5,4.2-0.1,3.3,2.6c-0.1,0.3-0.4,0.7-0.5,1c-1.3,2.3-3.6,4.1-5.7,5.6
	c-11.9,8.7-27.6,12.7-41.7,16.2c-6.7,1.6-13.4,3-20.1,4.3c-6.7,1.3-14.9,1.3-21.1,4c-10.5,4.5-12,20.1-14.1,29.7
	c-0.8,3.8-1.7,7.5-2.7,11.2c-0.9,3.3-0.6,5-4.1,5c-6,0.1-12.1-1.5-18-2.6c-13.9-2.6-28-3.9-42.1-3.6c-15.4,0.4-31.2,2.2-45.6,8.1
	c-13.7,5.7-26,14.3-38.1,22.9c-21.1,14.9-42.6,29.7-68.3,35.4c-12.9,2.8-26.2,3.2-39.3,2.7c-14-0.5-27.8-3.4-40.8-8.6
	c-24.8-9.9-44.9-27.5-67.3-41.6c-12.7-8-26.2-14.3-41.1-16.7c-15.8-2.5-31.9-3-47.9-1.3c-6.2,0.7-12.3,1.6-18.5,2.8
	c-6,1.1-12.5,3.2-18.6,3c-2.9-0.1-2.9-1-3.7-3.7c-1.1-4-2.1-8.1-3-12.2c-1.4-6.2-2.5-12.7-4.8-18.7c-1.8-4.7-4.4-9.5-9.1-11.8
	c-6-2.9-14.3-2.8-20.8-4.1c-12.2-2.3-24.3-5-36.2-8.7c-10.2-3.2-22.4-7.1-30.1-15c-0.7-0.8-1.5-1.5-2-2.5c-0.2-0.3-0.4-0.6-0.5-0.9
	c-0.8-2.5,0.2-2.2,2.6-2.7c11.8-2.2,23.3-5.5,34.4-10c20.3-8.1,39-20,55.6-34.3c24.3-21,44.4-47,59.4-75.3
	c5.1-9.7,10.6-20.3,12.4-31.1c4.4-27.1-18-42.5-40.5-50.7c-12-4.4-24.3-7.3-35.4-13.7c-5.1-2.9-15-8.7-14.2-15.9
	c0.6-5.5,7.4-9.2,11.9-10.9c3.1-1.1,6.4-1.9,9.7-1.7c4,0.2,7.4,2.3,11,3.8c13.1,5.4,27.9,9.2,42.1,7c7.1-1.1,14.5-3.8,19.7-9.1
	c1.2-1.3,1.7-1.8,2-3.3c0.5-2.8-0.4-6.6-0.5-9.5c-0.5-7.6-0.9-15.2-1.4-22.7c-1.8-28.9-3.5-58-1.4-87c0.9-12.4,2.5-24.9,6.2-36.9
	c3.6-11.9,9.6-23.1,16.1-33.6c11.9-19.4,27.4-36.5,45.8-49.9c27-19.6,59.6-30.9,92.8-34.1C609.9,68.8,620.5,68.8,631.1,68.8"/>
<g>
	<path class="st2" d="M494,240.9c33.8,1,65.7,9.9,96.8,22.2c3.3,1.2,6.6,2.3,9.8,3.7c14.9,6.2,30.1,7,45.8,3.6
		c16.3-3.6,32.7-7.2,49.4-9.2c19.7-2.3,39.5-2.3,59.3-0.3c29.2,3,58.2,7.6,86.6,14.8c3.6,1,4.6,2.2,3.7,5.8
		c-1.4,6.1-2.3,12.4-3.3,18.5c-0.3,1.4-0.6,2.3-2.1,2.8c-6.3,1.8-9.9,6.6-12.4,12.3c-3.7,8.6-5.1,17.7-6.9,26.6
		c-1.8,8.8-4.3,17.4-8,25.7c-10.1,22.2-27.2,35.6-51.3,38.8c-24.7,3.3-48.6-0.1-71.2-10.9c-22.2-10.6-35.9-28.7-43.6-51.6
		c-3.6-10.8-6.2-21.7-9.4-32.6c-3.2-10.8-4.4-14.9-20.7-14.6c-4.8,0.1-8,2.6-10.2,6.6c-3.6,6.5-6.3,13.5-9.4,20.3
		c-3,6.6-5.9,13.1-9.4,19.5c-15.2,27-38.3,41.8-69,45.1c-16.4,1.8-32.8,1.1-48.8-3.2c-28.3-7.6-44.3-26.3-49.8-54.8
		c-2.2-11.3-1.9-22.9-3-34.3c-0.4-4.7-1.1-9.2-2.6-13.7c-1.7-5.2-4.6-9.7-9.8-12.1c-1.4-0.7-1.8-1.5-1.8-3
		c-0.1-6.8-0.1-13.5-0.6-20.3c-0.1-2.9,1-3.4,3.4-3.7c20-1.9,40-2.8,60-2.6C475.1,240.2,484.5,240.6,494,240.9z M736.5,397.6
		c27.5,2.2,48.7-8,62.5-32.1c8.3-14.6,11.4-31,12-47.6c0.4-15.7-7.2-27.3-21.1-34.8c-5.1-2.8-10.3-4.8-15.9-6.2
		c-22.2-5.5-44.7-6.5-67.3-4.7c-10.9,0.8-21.4,3-31.2,8.1c-11.4,6.1-17.5,15.6-18.1,28.7c-0.3,8.1,1.4,16,2.6,23.9
		c4.1,26.6,17.7,46.2,42.9,56.8C713.7,394.3,724.9,396.6,736.5,397.6z M505,254.4c-5.5-0.4-10.9-1.1-16.4-1.2c-11.2-0.1-22.3,1-33,5
		c-13,5-21.4,14.1-24.3,27.9c-2.5,12.6-1.8,25.1,0.4,37.5c4.1,24,16.4,42.4,40.1,51.2c14.1,5.2,28.8,5.2,43.5,3.4
		c26.3-3.2,46.4-15.9,57.8-40.4c4.6-9.8,7.6-20,9.9-30.5c3.4-15.9-1.8-28-15.3-37c-3.7-2.5-7.6-4.4-11.7-6.1
		C539.7,257.8,522.4,255.5,505,254.4z M420.5,259.9c3.4,0.1,7.4,0.1,11.2-1.2c0.8-0.3,1.7-0.7,1.5-1.7c0-0.8-0.7-1.1-1.4-1.4
		c-6.2-1.8-12.4-1.9-18.5,0.1c-0.7,0.3-1.4,0.6-1.2,1.5c0.1,0.8,0.8,1.1,1.4,1.4C415.6,259.5,417.8,259.6,420.5,259.9z M821.9,284.4
		c-2.1,0.1-4.1,0.1-6.2,0.3c-1,0-2.1,0.1-2.3,1.2c-0.3,1.1,0.8,1.7,1.7,1.9c5.4,2.5,11,3.3,17,2.6c1-0.1,2.1-0.1,2.2-1.2
		c0.3-1.4-1-1.8-1.9-2.2C829.1,285.7,825.6,284.9,821.9,284.4z"/>
	<path class="st3" d="M736.5,397.6c-11.6-1-22.9-3.3-33.5-7.9c-25.2-10.6-38.8-30.2-42.9-56.8c-1.2-7.9-2.9-15.7-2.6-23.9
		c0.6-13.1,6.6-22.5,18.1-28.7c9.8-5.2,20.3-7.3,31.2-8.1c22.6-1.8,45.1-0.8,67.3,4.7c5.5,1.4,10.9,3.4,15.9,6.2
		c13.8,7.4,21.5,18.9,21.1,34.8c-0.6,16.7-3.6,33-12,47.6C785.2,389.6,764.1,399.8,736.5,397.6z"/>
	<path class="st3" d="M505,254.4c17.5,1.1,34.8,3.4,51.2,10.1c4.1,1.7,8,3.6,11.7,6.1c13.5,9,18.9,21.1,15.3,37
		c-2.3,10.5-5.4,20.7-9.9,30.5c-11.4,24.6-31.5,37.2-57.8,40.4c-14.6,1.8-29.4,1.8-43.5-3.4c-23.7-8.8-36-27.2-40.1-51.2
		c-2.2-12.4-2.9-25-0.4-37.5c2.8-13.9,11.3-22.9,24.3-27.9c10.6-4.1,21.7-5.1,33-5C494,253.3,499.5,254,505,254.4z"/>
	<path class="st4" d="M420.5,259.9c-2.6-0.3-4.8-0.4-6.9-1.2c-0.7-0.3-1.4-0.6-1.4-1.4c-0.1-0.8,0.6-1.2,1.2-1.5
		c6.2-2.1,12.3-1.9,18.5-0.1c0.7,0.1,1.4,0.6,1.4,1.4c0,1-0.8,1.4-1.5,1.7C427.9,259.9,423.9,260,420.5,259.9z"/>
	<path class="st4" d="M821.9,284.4c3.6,0.4,7.2,1.2,10.5,2.8c0.8,0.4,2.2,0.8,1.9,2.2c-0.1,1.1-1.4,1.1-2.2,1.2
		c-5.9,0.7-11.6-0.3-17-2.6c-0.8-0.4-1.9-0.8-1.7-1.9c0.3-1.1,1.4-1.2,2.3-1.2C817.8,284.6,819.8,284.4,821.9,284.4z"/>
</g>
<g>
	<g>
		<path class="st1" d="M358.5,387.4c-0.7-1.1-1.5-2.1-2.1-3.2c-0.5-0.8-1-1-1.9-1.1c-6.6-0.5-12.4-2.7-16.8-7.8
			c-4.2-4.8-5.6-10.6-5-16.7c0.4-4.3,1-8.5,0.9-12.8c-0.3-9.5,0.4-9.3-2.8-16.1"/>
		<g>
			<path d="M327.1,298.6c1.4,2.5,2.8,4.8,4.3,7.4c-4.6,0.9-9,1.8-13.6,2.8c0.9,1.4,1.7,2.5,2.4,3.7c6,9.5,8.9,20,9.2,31.2
				c0.1,5.1-0.5,10-1,15c-0.7,7.2,1,14,5.9,19.7c5.1,6,11.8,8.6,19.5,9.2c1,0.1,1.7,0.4,2.2,1.3c0.8,1.3,1.7,2.5,2.5,3.7
				c1.1,1.7,2.3,3.2,4.8,2.2c2.3,11.4,4.6,22.6,6.9,33.9c-2.9,0.8-5.7,1.5-8.6,2.4c-2.8,0.8-5.6,1.6-7.9,3.5c0,0.2,0,0.3,0,0.5
				c0.8,0.2,1.5,0.5,2.3,0.5c3.5-0.2,7-0.5,10.5-0.8c0.5,0,1-0.1,1.4-0.1c4.4-0.9,8.8-1.8,13.1-2.7c2.3-0.7,4.7-1.4,7-2.2
				c1.6-0.6,3.2-1.2,4.7-1.9c0.4-0.2,0.7-0.7,1-1.1c-0.5-0.2-1-0.7-1.4-0.7c-3.3,0.1-6.6,0.3-9.9,0.6c-1.7,0.1-3.4,0.5-5.1,0.8
				c-0.8,0.1-1.2-0.1-1.4-0.9c-2.1-10.6-4.3-21.1-6.5-31.7c-0.2-0.9,0-1.3,0.9-1.4c1.5-0.2,2.3-1.2,2.6-2.6c0.3-1.8,0.8-3.6,1-5.4
				c0.2-1.3,0.8-2,1.9-2.5c4.1-2.1,7.6-5.1,10.3-8.9c4.3-6.1,5.4-12.9,3.8-20.1c-0.8-3.5-2.4-6.7-4.3-9.8
				c-5.3-9.1-8.7-18.9-9.5-29.5c-0.4-5.5-0.1-10.8,1.1-16.2c0.1-0.4,0.1-0.9,0.2-1.3c0-0.1-0.1-0.2-0.1-0.3c-0.5,0.1-1,0.2-1.5,0.3
				c-13.1,2.7-26.3,5.3-39.4,8.1c-1.1,0.2-1.7,0-2.3-1c-1.3-2.4-2.7-4.8-4.1-7.2c7.4-4.3,14.6-8.5,22.2-12.9
				c-2.1-0.4-3.8-0.8-5.6-1.1c-7-1.3-14-2.7-21-4c-2.9-0.6-5.7-1.2-8.6-1.8c-0.1,0-0.2,0-0.3,0.1c-3.9,11.2-7.8,22.4-11.7,33.7
				c0.1,0.1,0.2,0.2,0.3,0.3C312.8,306.9,319.9,302.8,327.1,298.6z M318,285.4c0.6,4.3,1.1,8.7,1.6,13c0,0.3-0.2,0.8-0.4,1
				c-2.5,1.5-5,2.9-7.6,4.4c-0.1-0.1-0.2-0.1-0.3-0.2c2.1-6.1,4.2-12.2,6.3-18.3C317.8,285.3,317.9,285.4,318,285.4z M334,289.9
				c-3.3-2.4-6.5-4.9-9.8-7.3c-0.2-0.2-0.4-0.4-0.8-0.9c6.7,1.3,13,2.5,19.5,3.7c-0.3,0.3-0.4,0.5-0.5,0.6c-2.4,1.4-4.8,2.8-7.2,4.1
				C334.9,290.3,334.3,290.1,334,289.9z M325.7,315.6c-0.6-1.5-1.5-2.9-2.4-4.5c3.2-0.6,6.2-1.3,9.2-1.8c0.3-0.1,0.9,0.5,1.1,0.8
				c2.4,4.1,29.3,50.3,31.7,54.4l6,3.4c-2.5-4.4-29.5-50.7-32-55c-0.8-1.5-1.7-2.9-2.6-4.5c12.3-2.5,24.3-5,36.7-7.5
				c-1,6.3-2,11.5-1.1,17.9c0,0,1.2,6.8,2.2,9.9s3,9.9,7.5,17.4c1.6,2.7,3,5.3,3.7,8.3c1.4,6.1,0.4,11.9-3.3,17.1
				c-2.3,3.3-5.3,5.8-8.9,7.6c-1,0.5-1.5,1-1.6,2.1c-0.2,1.5-0.6,3.1-0.9,4.6c-0.7,3.1-10.1,5.2-12.5,1.6c-0.7-1-1.5-2.1-2.1-3.2
				c-0.5-0.8-1-1-1.9-1.1c-6.6-0.5-12.4-2.7-16.8-7.8c-4.2-4.8-5.6-10.6-5-16.7c0.4-4.3,1-8.5,0.9-12.8c-0.1-5.2,0-11.4-1.5-16.3
				C331,324,325.7,315.6,325.7,315.6z M322.8,297.3c-0.5-4.3-1-8.4-1.5-12.4c0.1,0,0.2-0.1,0.4-0.1c3.2,2.4,6.5,4.9,10,7.5
				C328.6,294,325.8,295.6,322.8,297.3z"/>
		</g>
		<path class="st5" d="M355.9,324.1c4.6-2.6,9.9-4.6,16.3-3.8c0.5,0.1,0.2,0,0.9,0.1c0.7,9,4.5,18,9,25.7c1.6,2.7,3,5.3,3.7,8.3
			c1.4,6.1,0.4,11.9-3.3,17.1c-2.3,3.3-5.3,5.8-8.9,7.6c-1,0.5-1.5,1-1.6,2.1c-0.2,1.5-0.6,3.1-0.9,4.6c-0.7,3.1-10.1,5.2-12.5,1.6
			c-0.7-1-1.5-2.1-2.1-3.2c-0.5-0.8-1-1-1.9-1.1c-6.6-0.5-12.4-2.7-16.8-7.8c-4.2-4.8-5.6-10.6-5-16.7c0.4-4.3,1-8.5,0.9-12.8
			c-0.2-5.6,0.1-12-1.7-17.1c0.3,0.8-0.6,1.2,0.2,1.5c3.6,1.2,6,1.7,10.4,1C346.9,330.6,350,327.4,355.9,324.1z"/>
	</g>
	<path class="st3" d="M318,285.4c0.6,4.3,1.1,8.7,1.6,13c0,0.3-0.2,0.8-0.4,1c-2.5,1.5-5,2.9-7.6,4.4c-0.1-0.1-0.2-0.1-0.3-0.2
		c2.1-6.1,4.2-12.2,6.3-18.3C317.8,285.3,317.9,285.4,318,285.4z"/>
	<path class="st3" d="M322.8,297.3c-0.5-4.3-1-8.4-1.5-12.4c0.1,0,0.2-0.1,0.4-0.1c3.2,2.4,6.5,4.9,10,7.5
		C328.6,294,325.8,295.6,322.8,297.3z"/>
	<path class="st3" d="M334,289.9c-3.3-2.4-6.5-4.9-9.8-7.3c-0.2-0.2-0.4-0.4-0.8-0.9c6.7,1.3,13,2.5,19.5,3.7
		c-0.3,0.3-0.4,0.5-0.5,0.6c-2.4,1.4-4.8,2.8-7.2,4.1C334.9,290.3,334.3,290.1,334,289.9z"/>
</g>
</svg>
